<svg width="50" height="51" viewBox="0 0 50 51" fill="none" xmlns="http://www.w3.org/2000/svg">
<path d="M43.7795 17.3008H4.30769C3.33324 17.3008 2.54333 18.0907 2.54333 19.0651V23.8046H45.5439V19.0651C45.5438 18.0908 44.7539 17.3008 43.7795 17.3008Z" fill="#FFB125"/>
<path d="M29.4494 7.50243L25.8748 43.6891C25.785 44.5981 24.9753 45.2622 24.0663 45.1724L5.95452 43.3833C5.04549 43.2935 4.3814 42.4838 4.47121 41.5747L8.04576 5.38818C8.13557 4.47914 8.94525 3.81505 9.85428 3.90486L27.9661 5.69401C28.875 5.78372 29.5391 6.5934 29.4494 7.50243Z" fill="#B6FA4C"/>
<path d="M27.9661 5.69401L9.8543 3.90486C8.94527 3.81505 8.13559 4.47914 8.04578 5.38818L7.7251 8.63476C7.99679 8.49675 8.30912 8.43074 8.63482 8.46291L26.7466 10.2521C27.6556 10.3419 28.3197 11.1515 28.2299 12.0606L24.976 45.0008C25.4625 44.7536 25.8172 44.2725 25.8747 43.6893L29.4493 7.50263C29.5392 6.5935 28.875 5.78382 27.9661 5.69401Z" fill="#A8E83A"/>
<path d="M9.96547 10.5194L7.3578 36.9185C7.32052 37.2964 7.49837 37.6647 7.82063 37.8655C8.70861 38.4192 9.39621 39.2497 9.77405 40.2248C9.90989 40.5753 10.2343 40.817 10.6083 40.854L19.9974 41.7814C20.3714 41.8184 20.7369 41.6448 20.9386 41.3276C21.4999 40.4454 22.3367 39.7653 23.3159 39.3962C23.6712 39.2622 23.9177 38.9359 23.955 38.5581L26.5627 12.1589C26.5999 11.7811 26.4221 11.4128 26.0998 11.2119C25.2118 10.6583 24.5242 9.82779 24.1464 8.85265C24.0106 8.50226 23.6861 8.26047 23.3121 8.22348L13.9231 7.29606C13.5491 7.25907 13.1835 7.43269 12.9819 7.74983C12.4206 8.63211 11.5837 9.31214 10.6046 9.68132C10.2494 9.8153 10.0029 10.1416 9.96547 10.5194Z" fill="#77DD00"/>
<path d="M26.1 11.2119C25.212 10.6583 24.5244 9.82779 24.1466 8.85265C24.0107 8.50216 23.6863 8.26047 23.3123 8.22348L13.9232 7.29606C13.5492 7.25907 13.1837 7.43269 12.9819 7.74983C12.4206 8.63211 11.5838 9.31214 10.6046 9.68132C10.2493 9.8153 10.0028 10.1416 9.96553 10.5194L9.86627 11.5244L22.0319 12.6886C22.4059 12.7256 22.7304 12.9672 22.8662 13.3177C23.244 14.2928 23.9316 15.1234 24.8196 15.677C25.1419 15.8779 25.3197 16.2462 25.2824 16.624L23.0207 39.5199C23.1177 39.4758 23.2159 39.434 23.3159 39.3963C23.6712 39.2623 23.9178 38.936 23.955 38.5581L26.5627 12.159C26.6001 11.7811 26.4221 11.4128 26.1 11.2119Z" fill="#73CC00"/>
<path d="M44.8062 12.8937L24.3288 42.9424C23.8144 43.6972 22.7854 43.8922 22.0306 43.3778L6.99095 33.1286C6.23616 32.6142 6.04119 31.5853 6.55556 30.8305L27.0331 0.78178C27.5475 0.0269915 28.5764 -0.167977 29.3312 0.346397L44.3709 10.5956C45.1257 11.11 45.3206 12.1388 44.8062 12.8937Z" fill="#B6FA4C"/>
<path d="M44.3709 10.5956L29.3312 0.346423C28.5765 -0.167951 27.5475 0.0269193 27.0331 0.781806L25.2816 3.3521C25.4336 3.39961 25.5813 3.46965 25.7198 3.56399L40.7595 13.8132C41.5143 14.3276 41.7093 15.3565 41.1949 16.1113L22.469 43.5898C23.1458 43.8015 23.9088 43.5589 24.3289 42.9425L44.8063 12.8937C45.3206 12.1389 45.1257 11.11 44.3709 10.5956Z" fill="#A8E83A"/>
<path d="M26.2593 6.20551L11.3205 28.1268C11.1066 28.4406 11.0863 28.8491 11.2729 29.1798C11.787 30.0912 11.9925 31.1496 11.8569 32.1866C11.8082 32.5593 11.9771 32.927 12.2876 33.1386L20.0842 38.4517C20.3947 38.6634 20.7988 38.6861 21.1278 38.5044C22.0433 37.999 23.1035 37.8031 24.1399 37.9482C24.5159 38.0009 24.8887 37.8327 25.1025 37.5189L40.0414 15.5976C40.2552 15.2838 40.2755 14.8754 40.0889 14.5447C39.5747 13.6333 39.3692 12.5748 39.5049 11.5379C39.5536 11.1653 39.3847 10.7976 39.0741 10.586L31.2776 5.27277C30.967 5.06108 30.563 5.03836 30.234 5.22004C29.3184 5.72547 28.2582 5.92132 27.2219 5.77622C26.8459 5.7234 26.4731 5.89171 26.2593 6.20551Z" fill="#77DD00"/>
<path d="M40.0889 14.5446C39.5747 13.6333 39.3693 12.5748 39.5049 11.5379C39.5536 11.1653 39.3847 10.7976 39.0741 10.5859L31.2775 5.27274C30.967 5.06114 30.563 5.03832 30.2339 5.22001C29.3185 5.72543 28.2582 5.92129 27.2219 5.77609C26.8458 5.72347 26.4731 5.89168 26.2592 6.20547L25.6366 7.11903L35.3805 13.6872C35.6911 13.8988 35.8601 14.2665 35.8113 14.6391C35.6757 15.676 35.8812 16.7344 36.3953 17.6458C36.5818 17.9766 36.5616 18.3851 36.3477 18.6988L23.2579 37.9073C23.5513 37.8944 23.8465 37.9072 24.14 37.9483C24.516 38.001 24.8887 37.8327 25.1026 37.5189L40.0414 15.5976C40.2552 15.2838 40.2755 14.8754 40.0889 14.5446Z" fill="#73CC00"/>
<path d="M27.9688 25.1819C30.9237 25.1819 33.3191 22.7865 33.3191 19.8316C33.3191 16.8767 30.9237 14.4813 27.9688 14.4813C25.0139 14.4813 22.6185 16.8767 22.6185 19.8316C22.6185 22.7865 25.0139 25.1819 27.9688 25.1819Z" fill="#B6FA4C"/>
<path d="M44.3908 50.4241H3.17273C1.76743 50.4241 0.628113 49.2849 0.628113 47.8795V22.6976C0.628113 21.2923 1.76733 20.153 3.17273 20.153H44.3908C45.7961 20.153 46.9354 21.2922 46.9354 22.6976V47.8795C46.9354 49.2849 45.7962 50.4241 44.3908 50.4241Z" fill="#FFB125"/>
<path d="M44.3908 20.153H39.7615C41.1668 20.153 42.3062 21.2923 42.3062 22.6976V47.8795C42.3062 49.2848 41.1668 50.4241 39.7615 50.4241H44.3908C45.7961 50.4241 46.9354 49.2849 46.9354 47.8795V22.6976C46.9354 21.2923 45.7961 20.153 44.3908 20.153Z" fill="#FF901D"/>
<path d="M48.45 30.4246H39.173C36.4866 30.4246 34.3089 32.6023 34.3089 35.2886C34.3089 37.975 36.4866 40.1527 39.173 40.1527H48.45C48.9592 40.1527 49.3719 39.7399 49.3719 39.2308V31.3465C49.3719 30.8374 48.9592 30.4246 48.45 30.4246Z" fill="#FF6D3A"/>
<path d="M48.45 30.4246H43.8043C44.3135 30.4246 44.7263 30.8373 44.7263 31.3465V37.9875C44.7263 38.5305 44.2861 38.9707 43.7431 38.9707H39.1729C36.6867 38.9707 34.6376 37.105 34.3458 34.6975C34.3223 34.8914 34.3088 35.0884 34.3088 35.2885C34.3088 37.9749 36.4865 40.1526 39.1729 40.1526H43.8042H48.4499C48.9591 40.1526 49.3718 39.7399 49.3718 39.2307V38.0488V31.3465C49.3719 30.8374 48.9592 30.4246 48.45 30.4246Z" fill="#ED5729"/>
<path d="M44.3908 20.153H3.17273C1.76743 20.153 0.628113 21.2923 0.628113 22.6976V25.4862H46.9354V22.6976C46.9354 21.2923 45.7962 20.153 44.3908 20.153Z" fill="#FF6D3A"/>
<path d="M46.5008 21.275C46.4093 21.1396 46.3052 21.0135 46.1901 20.8984C46.1887 20.897 46.1873 20.8958 46.1859 20.8945C46.0719 20.7809 45.9473 20.678 45.8134 20.5876C45.7796 20.5648 45.7451 20.5427 45.7101 20.5214C45.6581 20.4899 45.6045 20.4607 45.5501 20.4327C45.5149 20.4146 45.4791 20.3974 45.4429 20.3809C45.1222 20.2349 44.7661 20.153 44.3907 20.153H39.7617C41.1669 20.1531 42.306 21.2923 42.306 22.6976V25.486H46.9353V22.6976C46.9353 22.2584 46.8241 21.8452 46.6282 21.4847C46.5891 21.4127 46.5466 21.3426 46.5008 21.275Z" fill="#ED5729"/>
<path d="M3.17273 50.424H44.3908C45.7961 50.424 46.9354 49.2847 46.9354 47.8794V45.0908H0.628113V47.8794C0.628113 49.2847 1.76733 50.424 3.17273 50.424Z" fill="#FF6D3A"/>
<path d="M42.3061 45.0908V47.8794C42.3061 47.8809 42.3061 47.8823 42.3061 47.8837C42.3058 48.1187 42.109 48.3063 41.874 48.3063H3.17273C1.76743 48.3063 0.628113 47.167 0.628113 45.7617V47.8793C0.628113 49.2848 1.76733 50.424 3.17273 50.424H39.7616H44.3909C44.4412 50.424 44.4909 50.4221 44.5404 50.4193C44.5559 50.4184 44.5712 50.4169 44.5866 50.4158C44.6211 50.4131 44.6554 50.41 44.6895 50.4059C44.7065 50.404 44.7234 50.4018 44.7403 50.3995C44.7742 50.3949 44.8079 50.3894 44.8413 50.3835C44.8562 50.3808 44.8711 50.3785 44.8859 50.3755C44.9332 50.3662 44.9802 50.3559 45.0266 50.3439C45.0266 50.3439 45.0267 50.3439 45.0268 50.3439C45.0471 50.3387 45.067 50.3325 45.0872 50.3268C45.1878 50.2982 45.2862 50.2644 45.3814 50.2241C45.4194 50.208 45.457 50.1911 45.4941 50.1732C45.5312 50.1553 45.5678 50.1366 45.6038 50.117L45.6039 50.1169C45.6759 50.0778 45.7458 50.0353 45.8135 49.9896L45.8136 49.9895L45.8137 49.9894C45.8714 49.9505 45.9268 49.9089 45.9808 49.8655C45.9834 49.8634 45.9861 49.8614 45.9885 49.8594C46.0433 49.8151 46.096 49.7685 46.147 49.7199C46.2069 49.6626 46.264 49.6026 46.3181 49.5399V49.5398C46.4027 49.4416 46.4802 49.337 46.5492 49.2267C46.5511 49.2237 46.5531 49.2208 46.5549 49.2178C46.5803 49.1768 46.6049 49.1353 46.628 49.0928C46.628 49.0927 46.6281 49.0926 46.6282 49.0924V49.0923C46.6897 48.9791 46.7426 48.8604 46.7866 48.7376C46.7916 48.7236 46.7961 48.7093 46.8009 48.6953C46.8116 48.6639 46.8217 48.6322 46.8311 48.6003C46.8359 48.5841 46.8405 48.5679 46.845 48.5516C46.8538 48.5195 46.8618 48.4871 46.8693 48.4545C46.8728 48.4396 46.8765 48.4248 46.8796 48.4098C46.8896 48.3629 46.8986 48.3156 46.9059 48.2678C46.9059 48.2675 46.906 48.2673 46.906 48.267C46.906 48.2669 46.906 48.2667 46.906 48.2666C46.9146 48.2107 46.9206 48.1539 46.9254 48.0969C46.9266 48.0824 46.9276 48.068 46.9287 48.0535C46.9327 47.996 46.9353 47.938 46.9353 47.8794V45.7618V45.0909L42.3061 45.0908Z" fill="#ED5729"/>
<path d="M39.3462 37.5477C40.5935 37.5477 41.6047 36.5365 41.6047 35.2892C41.6047 34.0419 40.5935 33.0308 39.3462 33.0308C38.0989 33.0308 37.0878 34.0419 37.0878 35.2892C37.0878 36.5365 38.0989 37.5477 39.3462 37.5477Z" fill="#F2F2F2"/>
</svg>
