<svg width="48" height="51" viewBox="0 0 48 51" fill="none" xmlns="http://www.w3.org/2000/svg">
<path d="M24 46.0681C23.7713 46.0681 23.5521 45.9772 23.3904 45.8156C23.2287 45.6539 23.1379 45.4346 23.1379 45.206V40.0336C23.1379 39.8049 23.2287 39.5857 23.3904 39.424C23.5521 39.2623 23.7713 39.1715 24 39.1715C24.2286 39.1715 24.4479 39.2623 24.6096 39.424C24.7712 39.5857 24.862 39.8049 24.862 40.0336V45.206C24.862 45.4346 24.7712 45.6539 24.6096 45.8156C24.4479 45.9772 24.2286 46.0681 24 46.0681Z" fill="#505860"/>
<path d="M36.0689 46.0681C35.9555 46.0688 35.843 46.047 35.738 46.0041C35.633 45.9612 35.5374 45.898 35.4569 45.8181L31.1465 41.5077C31.0666 41.4272 31.0034 41.3317 30.9605 41.2266C30.9176 41.1216 30.8959 41.0091 30.8965 40.8957V36.5853C30.8965 36.3567 30.9874 36.1374 31.149 35.9758C31.3107 35.8141 31.53 35.7233 31.7586 35.7233C31.9872 35.7233 32.2065 35.8141 32.3682 35.9758C32.5298 36.1374 32.6207 36.3567 32.6207 36.5853V40.5422L36.681 44.594C36.7618 44.6741 36.8259 44.7694 36.8697 44.8745C36.9135 44.9795 36.936 45.0922 36.936 45.206C36.936 45.3198 36.9135 45.4325 36.8697 45.5376C36.8259 45.6426 36.7618 45.738 36.681 45.8181C36.6005 45.898 36.5049 45.9612 36.3999 46.0041C36.2949 46.047 36.1824 46.0688 36.0689 46.0681Z" fill="#505860"/>
<path d="M11.931 46.0681C11.8176 46.0688 11.7051 46.047 11.6001 46.0041C11.495 45.9612 11.3995 45.898 11.319 45.8181C11.2382 45.738 11.174 45.6426 11.1303 45.5376C11.0865 45.4325 11.064 45.3198 11.064 45.206C11.064 45.0922 11.0865 44.9795 11.1303 44.8745C11.174 44.7694 11.2382 44.6741 11.319 44.594L15.3793 40.5422V36.5853C15.3793 36.3567 15.4701 36.1374 15.6318 35.9758C15.7935 35.8141 16.0127 35.7233 16.2414 35.7233C16.47 35.7233 16.6893 35.8141 16.851 35.9758C17.0126 36.1374 17.1034 36.3567 17.1034 36.5853V40.8957C17.1041 41.0091 17.0824 41.1216 17.0395 41.2266C16.9966 41.3317 16.9333 41.4272 16.8534 41.5077L12.5431 45.8181C12.4625 45.898 12.367 45.9612 12.262 46.0041C12.157 46.047 12.0445 46.0688 11.931 46.0681Z" fill="#505860"/>
<path d="M24 11.5853C23.7713 11.5853 23.5521 11.4944 23.3904 11.3328C23.2287 11.1711 23.1379 10.9518 23.1379 10.7232V5.55079C23.1379 5.32215 23.2287 5.10288 23.3904 4.94122C23.5521 4.77955 23.7713 4.68872 24 4.68872C24.2286 4.68872 24.4479 4.77955 24.6096 4.94122C24.7712 5.10288 24.862 5.32215 24.862 5.55079V10.7232C24.862 10.9518 24.7712 11.1711 24.6096 11.3328C24.4479 11.4944 24.2286 11.5853 24 11.5853Z" fill="#505860"/>
<path d="M31.7586 15.0335C31.53 15.0335 31.3107 14.9427 31.149 14.781C30.9874 14.6194 30.8965 14.4001 30.8965 14.1715V9.86112C30.8959 9.74767 30.9176 9.6352 30.9605 9.53017C31.0034 9.42514 31.0666 9.3296 31.1465 9.24905L35.4569 4.93871C35.6192 4.77638 35.8394 4.68518 36.0689 4.68518C36.2985 4.68518 36.5187 4.77638 36.681 4.93871C36.8433 5.10104 36.9345 5.32121 36.9345 5.55078C36.9345 5.78035 36.8433 6.00052 36.681 6.16285L32.6207 10.2146V14.1715C32.6207 14.4001 32.5298 14.6194 32.3682 14.781C32.2065 14.9427 31.9872 15.0335 31.7586 15.0335Z" fill="#505860"/>
<path d="M16.2414 15.0335C16.0127 15.0335 15.7935 14.9427 15.6318 14.781C15.4701 14.6194 15.3793 14.4001 15.3793 14.1715V10.2146L11.319 6.16285C11.2386 6.08247 11.1748 5.98705 11.1313 5.88203C11.0878 5.77701 11.0654 5.66445 11.0654 5.55078C11.0654 5.32121 11.1566 5.10104 11.319 4.93871C11.4813 4.77638 11.7015 4.68518 11.931 4.68518C12.0447 4.68518 12.1573 4.70757 12.2623 4.75107C12.3673 4.79457 12.4627 4.85833 12.5431 4.93871L16.8534 9.24905C16.9333 9.3296 16.9965 9.42514 17.0394 9.53017C17.0823 9.6352 17.1041 9.74767 17.1034 9.86112V14.1715C17.1034 14.4001 17.0126 14.6194 16.8509 14.781C16.6893 14.9427 16.47 15.0335 16.2414 15.0335Z" fill="#505860"/>
<path d="M0.724121 13.3094H4.1724V16.7577H0.724121V13.3094Z" fill="#333F47"/>
<path d="M43.8276 40.8956H47.2759V44.3439H43.8276V40.8956Z" fill="#333F47"/>
<path d="M11.069 21.9302H3.31034C3.08171 21.9302 2.86244 21.8394 2.70077 21.6777C2.5391 21.516 2.44827 21.2968 2.44827 21.0681C2.44827 20.8395 2.5391 20.6202 2.70077 20.4585C2.86244 20.2969 3.08171 20.2061 3.31034 20.2061H11.069C11.2976 20.2061 11.5169 20.2969 11.6785 20.4585C11.8402 20.6202 11.931 20.8395 11.931 21.0681C11.931 21.2968 11.8402 21.516 11.6785 21.6777C11.5169 21.8394 11.2976 21.9302 11.069 21.9302Z" fill="#505860"/>
<path d="M11.069 30.5508H3.31034C3.08171 30.5508 2.86244 30.46 2.70077 30.2983C2.5391 30.1366 2.44827 29.9174 2.44827 29.6887C2.44827 29.4601 2.5391 29.2408 2.70077 29.0792C2.86244 28.9175 3.08171 28.8267 3.31034 28.8267H11.069C11.2976 28.8267 11.5169 28.9175 11.6785 29.0792C11.8402 29.2408 11.931 29.4601 11.931 29.6887C11.931 29.9174 11.8402 30.1366 11.6785 30.2983C11.5169 30.46 11.2976 30.5508 11.069 30.5508Z" fill="#505860"/>
<path d="M44.6896 21.9302H36.931C36.7024 21.9302 36.4831 21.8394 36.3214 21.6777C36.1598 21.516 36.0689 21.2968 36.0689 21.0681C36.0689 20.8395 36.1598 20.6202 36.3214 20.4585C36.4831 20.2969 36.7024 20.2061 36.931 20.2061H44.6896C44.9183 20.2061 45.1375 20.2969 45.2992 20.4585C45.4609 20.6202 45.5517 20.8395 45.5517 21.0681C45.5517 21.2968 45.4609 21.516 45.2992 21.6777C45.1375 21.8394 44.9183 21.9302 44.6896 21.9302Z" fill="#505860"/>
<path d="M44.6896 30.5508H36.931C36.7024 30.5508 36.4831 30.46 36.3214 30.2983C36.1598 30.1366 36.0689 29.9174 36.0689 29.6887C36.0689 29.4601 36.1598 29.2408 36.3214 29.0792C36.4831 28.9175 36.7024 28.8267 36.931 28.8267H44.6896C44.9183 28.8267 45.1375 28.9175 45.2992 29.0792C45.4609 29.2408 45.5517 29.4601 45.5517 29.6887C45.5517 29.9174 45.4609 30.1366 45.2992 30.2983C45.1375 30.46 44.9183 30.5508 44.6896 30.5508Z" fill="#505860"/>
<path d="M24 50.3785C25.4283 50.3785 26.5862 49.2206 26.5862 47.7923C26.5862 46.3639 25.4283 45.2061 24 45.2061C22.5717 45.2061 21.4138 46.3639 21.4138 47.7923C21.4138 49.2206 22.5717 50.3785 24 50.3785Z" fill="#F7636D"/>
<path d="M36.0689 47.7922C37.4973 47.7922 38.6552 46.6343 38.6552 45.206C38.6552 43.7776 37.4973 42.6198 36.0689 42.6198C34.6406 42.6198 33.4827 43.7776 33.4827 45.206C33.4827 46.6343 34.6406 47.7922 36.0689 47.7922Z" fill="#F7636D"/>
<path d="M11.931 47.7922C13.3593 47.7922 14.5172 46.6343 14.5172 45.206C14.5172 43.7776 13.3593 42.6198 11.931 42.6198C10.5027 42.6198 9.34482 43.7776 9.34482 45.206C9.34482 46.6343 10.5027 47.7922 11.931 47.7922Z" fill="#F7636D"/>
<path d="M24 5.55083C25.4283 5.55083 26.5862 4.39295 26.5862 2.96462C26.5862 1.5363 25.4283 0.378418 24 0.378418C22.5717 0.378418 21.4138 1.5363 21.4138 2.96462C21.4138 4.39295 22.5717 5.55083 24 5.55083Z" fill="#F7636D"/>
<path d="M36.0689 8.13701C37.4973 8.13701 38.6552 6.97913 38.6552 5.55081C38.6552 4.12248 37.4973 2.9646 36.0689 2.9646C34.6406 2.9646 33.4827 4.12248 33.4827 5.55081C33.4827 6.97913 34.6406 8.13701 36.0689 8.13701Z" fill="#F7636D"/>
<path d="M11.931 8.13701C13.3593 8.13701 14.5172 6.97913 14.5172 5.55081C14.5172 4.12248 13.3593 2.9646 11.931 2.9646C10.5027 2.9646 9.34482 4.12248 9.34482 5.55081C9.34482 6.97913 10.5027 8.13701 11.931 8.13701Z" fill="#F7636D"/>
<path d="M3.31033 23.6542C4.73865 23.6542 5.89653 22.4963 5.89653 21.068C5.89653 19.6397 4.73865 18.4818 3.31033 18.4818C1.88201 18.4818 0.724121 19.6397 0.724121 21.068C0.724121 22.4963 1.88201 23.6542 3.31033 23.6542Z" fill="#F7636D"/>
<path d="M3.31033 32.275C4.73865 32.275 5.89653 31.1171 5.89653 29.6887C5.89653 28.2604 4.73865 27.1025 3.31033 27.1025C1.88201 27.1025 0.724121 28.2604 0.724121 29.6887C0.724121 31.1171 1.88201 32.275 3.31033 32.275Z" fill="#F7636D"/>
<path d="M44.6896 23.6542C46.118 23.6542 47.2758 22.4963 47.2758 21.068C47.2758 19.6397 46.118 18.4818 44.6896 18.4818C43.2613 18.4818 42.1034 19.6397 42.1034 21.068C42.1034 22.4963 43.2613 23.6542 44.6896 23.6542Z" fill="#F7636D"/>
<path d="M44.6896 32.275C46.118 32.275 47.2758 31.1171 47.2758 29.6887C47.2758 28.2604 46.118 27.1025 44.6896 27.1025C43.2613 27.1025 42.1034 28.2604 42.1034 29.6887C42.1034 31.1171 43.2613 32.275 44.6896 32.275Z" fill="#F7636D"/>
<path d="M11.0689 19.4043V31.3526C11.0696 31.9573 11.2292 32.5512 11.5318 33.0747C11.8344 33.5982 12.2694 34.033 12.7931 34.3353L22.3189 39.6112C22.8243 39.8858 23.3903 40.0297 23.9655 40.0297C24.5407 40.0297 25.1067 39.8858 25.612 39.6112L35.2069 34.3353C35.7306 34.033 36.1655 33.5982 36.4681 33.0747C36.7708 32.5512 36.9304 31.9573 36.931 31.3526V19.4043C36.9304 18.7996 36.7708 18.2057 36.4681 17.6822C36.1655 17.1586 35.7306 16.7239 35.2069 16.4215L25.6465 11.1457C25.1412 10.871 24.5751 10.7272 24 10.7272C23.4248 10.7272 22.8588 10.871 22.3534 11.1457L12.7931 16.4215C12.2694 16.7239 11.8344 17.1586 11.5318 17.6822C11.2292 18.2057 11.0696 18.7996 11.0689 19.4043Z" fill="#F7D079"/>
<path d="M28.2327 36.1629C27.7274 36.4375 27.1613 36.5814 26.5862 36.5814C26.011 36.5814 25.445 36.4375 24.9396 36.1629L15.3793 30.887C14.8556 30.5847 14.4206 30.1499 14.118 29.6264C13.8154 29.1029 13.6558 28.509 13.6551 27.9043V15.9646L12.7931 16.4215C12.2694 16.7238 11.8344 17.1586 11.5318 17.6821C11.2292 18.2057 11.0696 18.7996 11.0689 19.4043V31.3525C11.0696 31.9572 11.2292 32.5511 11.5318 33.0747C11.8344 33.5982 12.2694 34.0329 12.7931 34.3353L22.3189 39.6111C22.8243 39.8858 23.3903 40.0297 23.9655 40.0297C24.5407 40.0297 25.1067 39.8858 25.612 39.6111L35.2069 34.3353C35.7306 34.0329 36.1655 33.5982 36.4681 33.0747C36.7708 32.5511 36.9304 31.9572 36.931 31.3525L28.2327 36.1629Z" fill="#F9B15A"/>
<path d="M20.5517 21.9302V28.8267C20.5517 29.0554 20.4609 29.2746 20.2992 29.4363C20.1375 29.598 19.9183 29.6888 19.6896 29.6888C19.5392 29.6879 19.3916 29.6476 19.2615 29.572C19.1315 29.4964 19.0235 29.3881 18.9483 29.2578L15.3793 24.5164V28.8267C15.3793 29.0554 15.2885 29.2746 15.1268 29.4363C14.9651 29.598 14.7459 29.6888 14.5172 29.6888C14.2886 29.6888 14.0693 29.598 13.9076 29.4363C13.746 29.2746 13.6552 29.0554 13.6552 28.8267V21.9302C13.6552 21.7015 13.746 21.4823 13.9076 21.3206C14.0693 21.1589 14.2886 21.0681 14.5172 21.0681C14.6677 21.069 14.8152 21.1093 14.9453 21.1849C15.0754 21.2605 15.1834 21.3689 15.2586 21.4991L18.8276 26.2405V21.9302C18.8276 21.7015 18.9184 21.4823 19.0801 21.3206C19.2417 21.1589 19.461 21.0681 19.6896 21.0681C19.9183 21.0681 20.1375 21.1589 20.2992 21.3206C20.4609 21.4823 20.5517 21.7015 20.5517 21.9302Z" fill="#F2F2F2"/>
<path d="M26.5862 22.7923C26.8148 22.7923 27.0341 22.7014 27.1958 22.5398C27.3574 22.3781 27.4483 22.1588 27.4483 21.9302C27.4483 21.7015 27.3574 21.4823 27.1958 21.3206C27.0341 21.1589 26.8148 21.0681 26.5862 21.0681H23.1379C22.9093 21.0681 22.69 21.1589 22.5283 21.3206C22.3667 21.4823 22.2758 21.7015 22.2758 21.9302V28.8267C22.2758 29.0554 22.3667 29.2746 22.5283 29.4363C22.69 29.598 22.9093 29.6888 23.1379 29.6888C23.3666 29.6888 23.5858 29.598 23.7475 29.4363C23.9092 29.2746 24 29.0554 24 28.8267V26.2405H26.5862C26.8148 26.2405 27.0341 26.1497 27.1958 25.988C27.3574 25.8264 27.4483 25.6071 27.4483 25.3785C27.4483 25.1498 27.3574 24.9306 27.1958 24.7689C27.0341 24.6072 26.8148 24.5164 26.5862 24.5164H24V22.7923H26.5862Z" fill="#F2F2F2"/>
<path d="M33.4827 21.0681H30.0345C29.8058 21.0681 29.5866 21.1589 29.4249 21.3206C29.2632 21.4823 29.1724 21.7015 29.1724 21.9302C29.1724 22.1588 29.2632 22.3781 29.4249 22.5398C29.5866 22.7014 29.8058 22.7923 30.0345 22.7923H30.8965V28.8267C30.8965 29.0554 30.9874 29.2746 31.149 29.4363C31.3107 29.598 31.53 29.6888 31.7586 29.6888C31.9872 29.6888 32.2065 29.598 32.3682 29.4363C32.5298 29.2746 32.6207 29.0554 32.6207 28.8267V22.7923H33.4827C33.7114 22.7923 33.9306 22.7014 34.0923 22.5398C34.254 22.3781 34.3448 22.1588 34.3448 21.9302C34.3448 21.7015 34.254 21.4823 34.0923 21.3206C33.9306 21.1589 33.7114 21.0681 33.4827 21.0681Z" fill="#F2F2F2"/>
</svg>
