<svg width="50" height="51" viewBox="0 0 50 51" fill="none" xmlns="http://www.w3.org/2000/svg">
<path d="M48.9064 28.699C48.7051 28.3927 48.4454 28.1289 48.1421 27.9229C47.8389 27.7169 47.498 27.5727 47.139 27.4985C46.78 27.4243 46.4098 27.4215 46.0498 27.4903C45.6897 27.5592 45.3467 27.6983 45.0404 27.8997L44.8068 28.0525L47.8724 32.719L48.106 32.5662C48.4127 32.365 48.6768 32.1054 48.883 31.8021C49.0893 31.4988 49.2338 31.1578 49.3081 30.7986C49.3825 30.4394 49.3853 30.0691 49.3163 29.7088C49.2474 29.3485 49.1081 29.0054 48.9064 28.699Z" fill="#6ADDC7"/>
<path d="M33.8297 3.63175H3.93767C3.5046 3.62747 3.07499 3.70923 2.67376 3.87227C2.27254 4.03532 1.90768 4.27642 1.60036 4.58158C1.29304 4.88674 1.04937 5.24988 0.883489 5.64995C0.71761 6.05002 0.632823 6.47904 0.634046 6.91213V46.8789C0.634046 48.7123 2.10319 50.2412 3.93767 50.2412H33.8297C34.7166 50.2323 35.5642 49.8745 36.1892 49.2452C36.8141 48.6159 37.166 47.7658 37.1688 46.8789V6.91213C37.1688 5.07764 35.6631 3.63175 33.8297 3.63175ZM8.17238 10.1405C7.80868 10.1405 7.45314 10.0326 7.15073 9.83056C6.84833 9.62849 6.61263 9.3413 6.47344 9.00528C6.33426 8.66926 6.29784 8.29952 6.3688 7.9428C6.43975 7.58609 6.61489 7.25842 6.87207 7.00125C7.12925 6.74407 7.45691 6.56893 7.81363 6.49797C8.17034 6.42702 8.54008 6.46344 8.8761 6.60262C9.21212 6.7418 9.49932 6.9775 9.70138 7.27991C9.90345 7.58232 10.0113 7.93785 10.0113 8.30156C10.0113 8.54305 9.96378 8.78219 9.87138 9.00531C9.77897 9.22843 9.64352 9.43117 9.47275 9.60193C9.30199 9.77269 9.09926 9.90815 8.87614 10.0006C8.65302 10.093 8.41388 10.1405 8.17238 10.1405ZM15.0941 10.1405C14.7304 10.1405 14.3748 10.0326 14.0724 9.83056C13.77 9.62849 13.5343 9.3413 13.3951 9.00528C13.2559 8.66926 13.2195 8.29952 13.2905 7.9428C13.3614 7.58609 13.5366 7.25842 13.7937 7.00125C14.0509 6.74407 14.3786 6.56893 14.7353 6.49797C15.092 6.42702 15.4618 6.46344 15.7978 6.60262C16.1338 6.7418 16.421 6.9775 16.6231 7.27991C16.8251 7.58232 16.933 7.93785 16.933 8.30156C16.933 8.54305 16.8855 8.78219 16.793 9.00531C16.7006 9.22843 16.5652 9.43117 16.3944 9.60193C16.2237 9.77269 16.0209 9.90815 15.7978 10.0006C15.5747 10.093 15.3356 10.1405 15.0941 10.1405ZM22.0168 10.1405C21.6531 10.1405 21.2976 10.0326 20.9952 9.83056C20.6928 9.62849 20.4571 9.3413 20.3179 9.00528C20.1787 8.66926 20.1423 8.29952 20.2133 7.9428C20.2842 7.58609 20.4593 7.25842 20.7165 7.00125C20.9737 6.74407 21.3014 6.56893 21.6581 6.49797C22.0148 6.42702 22.3845 6.46344 22.7206 6.60262C23.0566 6.7418 23.3438 6.9775 23.5458 7.27991C23.7479 7.58232 23.8557 7.93785 23.8557 8.30156C23.8559 8.54309 23.8084 8.78228 23.7161 9.00545C23.6237 9.22862 23.4883 9.4314 23.3175 9.60219C23.1467 9.77298 22.9439 9.90843 22.7207 10.0008C22.4976 10.0932 22.2584 10.1406 22.0168 10.1405ZM28.9385 10.1405C28.5748 10.1405 28.2193 10.0326 27.9169 9.83056C27.6145 9.62849 27.3788 9.3413 27.2396 9.00528C27.1004 8.66926 27.064 8.29952 27.1349 7.9428C27.2059 7.58609 27.381 7.25842 27.6382 7.00125C27.8954 6.74407 28.223 6.56893 28.5798 6.49797C28.9365 6.42702 29.3062 6.46344 29.6422 6.60262C29.9782 6.7418 30.2654 6.9775 30.4675 7.27991C30.6696 7.58232 30.7774 7.93785 30.7774 8.30156C30.7774 8.54305 30.7299 8.78219 30.6375 9.00531C30.5451 9.22843 30.4096 9.43117 30.2389 9.60193C30.0681 9.77269 29.8654 9.90815 29.6423 10.0006C29.4191 10.093 29.18 10.1405 28.9385 10.1405Z" fill="#CAE6EE"/>
<path d="M8.6274 15.2454C9.38776 15.2453 10.1311 15.4706 10.7634 15.893C11.3956 16.3153 11.8885 16.9157 12.1796 17.6181C12.4706 18.3205 12.5469 19.0935 12.3986 19.8393C12.2504 20.5851 11.8844 21.2701 11.3468 21.8079C10.8092 22.3456 10.1242 22.7118 9.37852 22.8603C8.63279 23.0087 7.85979 22.9327 7.15726 22.6418C6.45474 22.351 5.85425 21.8583 5.43172 21.2261C5.0092 20.594 4.78362 19.8507 4.78351 19.0904C4.78348 18.0708 5.18841 17.0929 5.90926 16.3719C6.6301 15.6508 7.60783 15.2456 8.6274 15.2454Z" fill="#81C83D"/>
<path d="M8.6274 26.3165C9.38776 26.3164 10.1311 26.5418 10.7634 26.9641C11.3956 27.3865 11.8885 27.9868 12.1796 28.6893C12.4706 29.3917 12.5469 30.1647 12.3986 30.9105C12.2504 31.6562 11.8844 32.3413 11.3468 32.879C10.8092 33.4168 10.1242 33.783 9.37852 33.9315C8.63279 34.0799 7.85979 34.0039 7.15726 33.713C6.45474 33.4221 5.85425 32.9295 5.43172 32.2973C5.0092 31.6651 4.78362 30.9219 4.78351 30.1615C4.78348 29.142 5.18841 28.1641 5.90926 27.4431C6.6301 26.722 7.60783 26.3168 8.6274 26.3165Z" fill="#81C83D"/>
<path d="M8.6274 37.3876C9.38776 37.3875 10.1311 37.6128 10.7634 38.0352C11.3956 38.4575 11.8885 39.0579 12.1796 39.7603C12.4706 40.4627 12.5469 41.2357 12.3986 41.9815C12.2504 42.7273 11.8844 43.4123 11.3468 43.9501C10.8092 44.4878 10.1242 44.8541 9.37852 45.0025C8.63279 45.1509 7.85979 45.0749 7.15726 44.784C6.45474 44.4932 5.85425 44.0005 5.43172 43.3683C5.0092 42.7362 4.78362 41.9929 4.78351 41.2326C4.78348 40.213 5.18841 39.2352 5.90926 38.5141C6.6301 37.7931 7.60783 37.3878 8.6274 37.3876Z" fill="#81C83D"/>
<path d="M3.95539 46.8789V6.91213C3.95416 6.47904 4.03895 6.05002 4.20483 5.64995C4.37071 5.24988 4.61438 4.88674 4.9217 4.58158C5.22902 4.27642 5.59388 4.03532 5.9951 3.87227C6.39633 3.70923 6.82594 3.62747 7.25901 3.63175H3.93767C3.5046 3.62747 3.07499 3.70923 2.67376 3.87227C2.27254 4.03532 1.90768 4.27642 1.60036 4.58158C1.29304 4.88674 1.04937 5.24988 0.883489 5.64995C0.71761 6.05002 0.632823 6.47904 0.634046 6.91213V46.8789C0.634046 48.7123 2.10319 50.2412 3.93767 50.2412H7.25901C5.42453 50.2412 3.95539 48.7123 3.95539 46.8789Z" fill="#AAC8CE"/>
<path d="M8.17239 7.1114C7.99621 7.1114 7.82725 7.04142 7.70268 6.91684C7.5781 6.79227 7.50812 6.62331 7.50812 6.44713V0.905479C7.50812 0.729304 7.5781 0.560345 7.70268 0.43577C7.82725 0.311196 7.99621 0.241211 8.17239 0.241211C8.34856 0.241211 8.51752 0.311196 8.64209 0.43577C8.76667 0.560345 8.83665 0.729304 8.83665 0.905479V6.44713C8.83665 6.62331 8.76667 6.79227 8.64209 6.91684C8.51752 7.04142 8.34856 7.1114 8.17239 7.1114Z" fill="#6D7486"/>
<path d="M8.17239 7.1114C7.99621 7.1114 7.82725 7.04142 7.70268 6.91684C7.5781 6.79227 7.50812 6.62331 7.50812 6.44713V0.905479C7.50812 0.729304 7.5781 0.560345 7.70268 0.43577C7.82725 0.311196 7.99621 0.241211 8.17239 0.241211C8.34856 0.241211 8.51752 0.311196 8.64209 0.43577C8.76667 0.560345 8.83665 0.729304 8.83665 0.905479V6.44713C8.83665 6.62331 8.76667 6.79227 8.64209 6.91684C8.51752 7.04142 8.34856 7.1114 8.17239 7.1114Z" fill="#6D7486"/>
<path d="M15.0944 7.1114C14.9182 7.1114 14.7492 7.04142 14.6247 6.91684C14.5001 6.79227 14.4301 6.62331 14.4301 6.44713V0.905479C14.4301 0.729304 14.5001 0.560345 14.6247 0.43577C14.7492 0.311196 14.9182 0.241211 15.0944 0.241211C15.2706 0.241211 15.4395 0.311196 15.5641 0.43577C15.6887 0.560345 15.7587 0.729304 15.7587 0.905479V6.44713C15.7587 6.62331 15.6887 6.79227 15.5641 6.91684C15.4395 7.04142 15.2706 7.1114 15.0944 7.1114Z" fill="#6D7486"/>
<path d="M22.0166 7.1114C21.8404 7.1114 21.6715 7.04142 21.5469 6.91684C21.4223 6.79227 21.3524 6.62331 21.3524 6.44713V0.905479C21.3524 0.729304 21.4223 0.560345 21.5469 0.43577C21.6715 0.311196 21.8404 0.241211 22.0166 0.241211C22.1928 0.241211 22.3618 0.311196 22.4863 0.43577C22.6109 0.560345 22.6809 0.729304 22.6809 0.905479V6.44713C22.6809 6.62331 22.6109 6.79227 22.4863 6.91684C22.3618 7.04142 22.1928 7.1114 22.0166 7.1114Z" fill="#6D7486"/>
<path d="M28.9386 7.1114C28.7624 7.1114 28.5935 7.04142 28.4689 6.91684C28.3443 6.79227 28.2744 6.62331 28.2744 6.44713V0.905479C28.2744 0.729304 28.3443 0.560345 28.4689 0.43577C28.5935 0.311196 28.7624 0.241211 28.9386 0.241211C29.1148 0.241211 29.2838 0.311196 29.4083 0.43577C29.5329 0.560345 29.6029 0.729304 29.6029 0.905479V6.44713C29.6029 6.62331 29.5329 6.79227 29.4083 6.91684C29.2838 7.04142 29.1148 7.1114 28.9386 7.1114Z" fill="#6D7486"/>
<path d="M32.9839 18.4256H16.3772C16.201 18.4256 16.0321 18.3556 15.9075 18.231C15.7829 18.1064 15.7129 17.9375 15.7129 17.7613C15.7129 17.5851 15.7829 17.4162 15.9075 17.2916C16.0321 17.167 16.201 17.097 16.3772 17.097H32.9839C33.1601 17.097 33.329 17.167 33.4536 17.2916C33.5782 17.4162 33.6482 17.5851 33.6482 17.7613C33.6482 17.9375 33.5782 18.1064 33.4536 18.231C33.329 18.3556 33.1601 18.4256 32.9839 18.4256Z" fill="#8FB1B5"/>
<path d="M8.18335 20.6841C8.09612 20.6842 8.00972 20.6671 7.92913 20.6337C7.84853 20.6003 7.77532 20.5514 7.71372 20.4896L6.65587 19.4316C6.59281 19.3703 6.54257 19.297 6.50806 19.216C6.47356 19.1351 6.45548 19.0481 6.45488 18.9601C6.45428 18.8721 6.47116 18.7849 6.50456 18.7035C6.53795 18.6221 6.58718 18.5481 6.6494 18.4859C6.71161 18.4237 6.78557 18.3744 6.86698 18.341C6.94838 18.3076 7.03561 18.2907 7.1236 18.2913C7.21159 18.2919 7.29859 18.31 7.37953 18.3445C7.46048 18.379 7.53377 18.4292 7.59514 18.4923L8.19376 19.0909L9.66965 17.6799C9.73258 17.619 9.80693 17.5711 9.88842 17.539C9.96991 17.507 10.0569 17.4913 10.1445 17.493C10.232 17.4947 10.3184 17.5137 10.3986 17.5489C10.4788 17.5841 10.5512 17.6348 10.6117 17.6981C10.6722 17.7614 10.7196 17.836 10.7512 17.9177C10.7828 17.9994 10.7979 18.0865 10.7957 18.1741C10.7934 18.2616 10.7739 18.3478 10.7383 18.4278C10.7026 18.5078 10.6514 18.5799 10.5878 18.6401L8.64247 20.5C8.51896 20.6184 8.35443 20.6843 8.18335 20.6841Z" fill="#D8FF33"/>
<path d="M32.9839 29.4966H16.3772C16.201 29.4966 16.0321 29.4266 15.9075 29.3021C15.7829 29.1775 15.7129 29.0085 15.7129 28.8324C15.7129 28.6562 15.7829 28.4872 15.9075 28.3626C16.0321 28.2381 16.201 28.1681 16.3772 28.1681H32.9839C33.1601 28.1681 33.329 28.2381 33.4536 28.3626C33.5782 28.4872 33.6482 28.6562 33.6482 28.8324C33.6482 29.0085 33.5782 29.1775 33.4536 29.3021C33.329 29.4266 33.1601 29.4966 32.9839 29.4966Z" fill="#8FB1B5"/>
<path d="M8.18335 31.7552C8.09612 31.7553 8.00972 31.7381 7.92913 31.7048C7.84853 31.6714 7.77532 31.6224 7.71372 31.5606L6.65587 30.5027C6.59281 30.4413 6.54257 30.368 6.50806 30.2871C6.47356 30.2061 6.45548 30.1192 6.45488 30.0312C6.45428 29.9432 6.47116 29.8559 6.50456 29.7745C6.53795 29.6931 6.58718 29.6192 6.6494 29.5569C6.71161 29.4947 6.78557 29.4455 6.86698 29.4121C6.94838 29.3787 7.03561 29.3618 7.1236 29.3624C7.21159 29.363 7.29859 29.381 7.37953 29.4155C7.46048 29.45 7.53377 29.5002 7.59514 29.5633L8.19376 30.1619L9.66965 28.7509C9.73258 28.69 9.80693 28.6421 9.88842 28.6101C9.96991 28.578 10.0569 28.5624 10.1445 28.5641C10.232 28.5658 10.3184 28.5848 10.3986 28.62C10.4788 28.6552 10.5512 28.7059 10.6117 28.7692C10.6722 28.8325 10.7196 28.9071 10.7512 28.9888C10.7828 29.0704 10.7979 29.1576 10.7957 29.2451C10.7934 29.3326 10.7739 29.4189 10.7383 29.4989C10.7026 29.5788 10.6514 29.651 10.5878 29.7111L8.64247 31.571C8.51896 31.6894 8.35443 31.7554 8.18335 31.7552Z" fill="#D8FF33"/>
<path d="M26.9058 40.5678H16.3772C16.201 40.5678 16.0321 40.4978 15.9075 40.3732C15.7829 40.2487 15.7129 40.0797 15.7129 39.9035C15.7129 39.7274 15.7829 39.5584 15.9075 39.4338C16.0321 39.3092 16.201 39.2393 16.3772 39.2393H26.9058C27.082 39.2393 27.251 39.3092 27.3755 39.4338C27.5001 39.5584 27.5701 39.7274 27.5701 39.9035C27.5701 40.0797 27.5001 40.2487 27.3755 40.3732C27.251 40.4978 27.082 40.5678 26.9058 40.5678Z" fill="#8FB1B5"/>
<path d="M8.18335 42.8263C8.09612 42.8264 8.00972 42.8093 7.92913 42.7759C7.84853 42.7425 7.77532 42.6936 7.71372 42.6318L6.65587 41.5739C6.59281 41.5125 6.54257 41.4392 6.50806 41.3583C6.47356 41.2773 6.45548 41.1903 6.45488 41.1023C6.45428 41.0143 6.47116 40.9271 6.50456 40.8457C6.53795 40.7643 6.58718 40.6903 6.6494 40.6281C6.71161 40.5659 6.78557 40.5166 6.86698 40.4832C6.94838 40.4498 7.03561 40.4329 7.1236 40.4335C7.21159 40.4341 7.29859 40.4522 7.37953 40.4867C7.46048 40.5212 7.53377 40.5714 7.59514 40.6345L8.19376 41.2331L9.66965 39.8221C9.73258 39.7612 9.80693 39.7133 9.88842 39.6813C9.96991 39.6492 10.0569 39.6336 10.1445 39.6353C10.232 39.637 10.3184 39.6559 10.3986 39.6911C10.4788 39.7263 10.5512 39.777 10.6117 39.8403C10.6722 39.9036 10.7196 39.9783 10.7512 40.0599C10.7828 40.1416 10.7979 40.2287 10.7957 40.3163C10.7934 40.4038 10.7739 40.4901 10.7383 40.57C10.7026 40.65 10.6514 40.7221 10.5878 40.7823L8.64247 42.6422C8.51896 42.7606 8.35443 42.8266 8.18335 42.8263Z" fill="#D8FF33"/>
<path d="M25.2341 20.6398H16.3772C16.201 20.6398 16.0321 20.5698 15.9075 20.4453C15.7829 20.3207 15.7129 20.1517 15.7129 19.9755C15.7129 19.7994 15.7829 19.6304 15.9075 19.5058C16.0321 19.3813 16.201 19.3113 16.3772 19.3113H25.2341C25.4103 19.3113 25.5792 19.3813 25.7038 19.5058C25.8284 19.6304 25.8984 19.7994 25.8984 19.9755C25.8984 20.1517 25.8284 20.3207 25.7038 20.4453C25.5792 20.5698 25.4103 20.6398 25.2341 20.6398Z" fill="#8FB1B5"/>
<path d="M25.2341 31.7109H16.3772C16.201 31.7109 16.0321 31.6409 15.9075 31.5163C15.7829 31.3917 15.7129 31.2228 15.7129 31.0466C15.7129 30.8704 15.7829 30.7015 15.9075 30.5769C16.0321 30.4523 16.201 30.3823 16.3772 30.3823H25.2341C25.4103 30.3823 25.5792 30.4523 25.7038 30.5769C25.8284 30.7015 25.8984 30.8704 25.8984 31.0466C25.8984 31.2228 25.8284 31.3917 25.7038 31.5163C25.5792 31.6409 25.4103 31.7109 25.2341 31.7109Z" fill="#8FB1B5"/>
<path d="M25.2341 42.782H16.3772C16.201 42.782 16.0321 42.712 15.9075 42.5875C15.7829 42.4629 15.7129 42.2939 15.7129 42.1178C15.7129 41.9416 15.7829 41.7726 15.9075 41.6481C16.0321 41.5235 16.201 41.4535 16.3772 41.4535H25.2341C25.4103 41.4535 25.5792 41.5235 25.7038 41.6481C25.8284 41.7726 25.8984 41.9416 25.8984 42.1178C25.8984 42.2939 25.8284 42.4629 25.7038 42.5875C25.5792 42.712 25.4103 42.782 25.2341 42.782Z" fill="#8FB1B5"/>
<path d="M3.21361 9.65358C3.03744 9.65358 2.86848 9.5836 2.74391 9.45902C2.61933 9.33445 2.54935 9.16549 2.54935 8.98931V8.29183C2.54935 8.11566 2.61933 7.9467 2.74391 7.82212C2.86848 7.69755 3.03744 7.62756 3.21361 7.62756C3.38979 7.62756 3.55875 7.69755 3.68332 7.82212C3.8079 7.9467 3.87788 8.11566 3.87788 8.29183V8.98931C3.87788 9.16549 3.8079 9.33445 3.68332 9.45902C3.55875 9.5836 3.38979 9.65358 3.21361 9.65358Z" fill="#F4F8FC"/>
<path d="M3.21361 18.1784C3.03744 18.1784 2.86848 18.1084 2.74391 17.9838C2.61933 17.8592 2.54935 17.6903 2.54935 17.5141V11.0929C2.54935 10.9167 2.61933 10.7477 2.74391 10.6231C2.86848 10.4986 3.03744 10.4286 3.21361 10.4286C3.38979 10.4286 3.55875 10.4986 3.68332 10.6231C3.8079 10.7477 3.87788 10.9167 3.87788 11.0929V17.5141C3.87788 17.6903 3.8079 17.8592 3.68332 17.9838C3.55875 18.1084 3.38979 18.1784 3.21361 18.1784Z" fill="#F4F8FC"/>
<path d="M46.3401 30.3862L28.4946 42.105L30.0279 44.4377L47.8724 32.7189L46.3401 30.3862Z" fill="#E75163"/>
<path d="M26.9684 39.7726L44.8164 28.0518L46.3495 30.3863L28.5014 42.1071L26.9684 39.7726Z" fill="#FB6771"/>
<path d="M26.9612 39.7712L26.8903 39.9041L24.4137 44.585L30.0279 44.4377L26.9612 39.7712Z" fill="#C79A83"/>
</svg>
