<svg width="56" height="51" viewBox="0 0 56 51" fill="none" xmlns="http://www.w3.org/2000/svg">
<path d="M28.9259 37.1202H21.0418C19.5685 37.1202 18.1554 37.7055 17.1135 38.7474L15.037 40.8239L19.6666 45.4536L21.902 43.2182C22.2494 42.8708 22.7203 42.6758 23.2115 42.6758H28.9259C30.46 42.6758 31.7037 41.4322 31.7037 39.898C31.7037 38.3639 30.46 37.1202 28.9259 37.1202Z" fill="#FAB991"/>
<path d="M42.2723 35.8108C41.5491 35.0875 40.3766 35.0875 39.6534 35.8108L32.7885 42.6758H23.2115C22.7204 42.6758 22.2494 42.8709 21.902 43.2182L19.6666 45.4536L22.4444 48.2314L24.2963 46.3795H33.1721C33.9141 46.3795 34.6117 46.0905 35.1362 45.5659L42.2724 38.4296C42.9956 37.7065 42.9956 36.534 42.2723 35.8108Z" fill="#F0915A"/>
<path d="M28.9259 41.4411H28.3087C27.7973 41.4411 27.3828 41.0265 27.3828 40.5151V39.2805C27.3828 38.7692 27.7973 38.3546 28.3087 38.3546H28.9259C29.7782 38.3546 30.4691 39.0456 30.4691 39.8978C30.4691 40.7502 29.7782 41.4411 28.9259 41.4411Z" fill="#F0915A"/>
<path d="M14.7658 40.5529L19.6666 45.4537L15.037 50.0834H3.9259L13.4563 40.5529C13.8179 40.1913 14.4043 40.1913 14.7658 40.5529Z" fill="#555A6E"/>
<path d="M19.6666 45.4534L22.7156 48.5023C23.0771 48.8639 23.0771 49.4502 22.7156 49.8118L22.4444 50.083H15.037L19.6666 45.4534Z" fill="#463C4B"/>
<path d="M13.1852 0.0830078H3.92593C2.47952 1.52942 1.66864 2.3403 0.222229 3.78671V16.7497C0.222229 17.7725 1.05128 18.6015 2.07408 18.6015H13.1852C14.208 18.6015 15.037 17.7725 15.037 16.7497V1.93486C15.037 0.912059 14.208 0.0830078 13.1852 0.0830078Z" fill="#FF6E91"/>
<path d="M3.92593 0.0830078L0.222229 3.78671H2.07408C3.09688 3.78671 3.92593 2.95766 3.92593 1.93486V0.0830078Z" fill="#E64178"/>
<path d="M12.2593 7.49028H3.00002C2.48868 7.49028 2.0741 7.0757 2.0741 6.56435C2.0741 6.05301 2.48868 5.63843 3.00002 5.63843H12.2593C12.7706 5.63843 13.1852 6.05301 13.1852 6.56435C13.1852 7.0757 12.7706 7.49028 12.2593 7.49028Z" fill="#E64178"/>
<path d="M12.2593 11.1941H3.00002C2.48868 11.1941 2.0741 10.7796 2.0741 10.2682C2.0741 9.75687 2.48868 9.34229 3.00002 9.34229H12.2593C12.7706 9.34229 13.1852 9.75687 13.1852 10.2682C13.1852 10.7796 12.7706 11.1941 12.2593 11.1941Z" fill="#E64178"/>
<path d="M8.55558 14.8979H3.00002C2.48868 14.8979 2.0741 14.4833 2.0741 13.9719C2.0741 13.4606 2.48868 13.046 3.00002 13.046H8.55558C9.06692 13.046 9.4815 13.4606 9.4815 13.9719C9.4815 14.4833 9.06692 14.8979 8.55558 14.8979Z" fill="#E64178"/>
<path d="M33.5556 0.0830078H24.2963C22.8499 1.52942 22.039 2.3403 20.5926 3.78671V16.7497C20.5926 17.7725 21.4216 18.6015 22.4444 18.6015H33.5556C34.5784 18.6015 35.4074 17.7725 35.4074 16.7497V1.93486C35.4074 0.912059 34.5784 0.0830078 33.5556 0.0830078Z" fill="#5AD7FF"/>
<path d="M24.2963 0.0830078L20.5926 3.78671H22.4444C23.4672 3.78671 24.2963 2.95766 24.2963 1.93486V0.0830078Z" fill="#2387C3"/>
<path d="M32.6296 7.49028H23.3704C22.859 7.49028 22.4445 7.0757 22.4445 6.56435C22.4445 6.05301 22.859 5.63843 23.3704 5.63843H32.6296C33.141 5.63843 33.5556 6.05301 33.5556 6.56435C33.5556 7.0757 33.141 7.49028 32.6296 7.49028Z" fill="#2387C3"/>
<path d="M32.6296 11.1941H23.3704C22.859 11.1941 22.4445 10.7796 22.4445 10.2682C22.4445 9.75687 22.859 9.34229 23.3704 9.34229H32.6296C33.141 9.34229 33.5556 9.75687 33.5556 10.2682C33.5556 10.7796 33.141 11.1941 32.6296 11.1941Z" fill="#2387C3"/>
<path d="M28.9259 14.8979H23.3704C22.859 14.8979 22.4445 14.4833 22.4445 13.9719C22.4445 13.4606 22.859 13.046 23.3704 13.046H28.9259C29.4373 13.046 29.8519 13.4606 29.8519 13.9719C29.8519 14.4833 29.4373 14.8979 28.9259 14.8979Z" fill="#2387C3"/>
<path d="M53.9259 0.0830078H44.6667C43.2202 1.52942 42.4094 2.3403 40.963 3.78671V16.7497C40.963 17.7725 41.792 18.6015 42.8148 18.6015H53.9259C54.9487 18.6015 55.7778 17.7725 55.7778 16.7497V1.93486C55.7778 0.912059 54.9487 0.0830078 53.9259 0.0830078Z" fill="#D7E6F0"/>
<path d="M44.6667 0.0830078L40.963 3.78671H42.8148C43.8376 3.78671 44.6667 2.95766 44.6667 1.93486V0.0830078Z" fill="#A5C3DC"/>
<path d="M53 7.49028H43.7407C43.2294 7.49028 42.8148 7.0757 42.8148 6.56435C42.8148 6.05301 43.2294 5.63843 43.7407 5.63843H53C53.5113 5.63843 53.9259 6.05301 53.9259 6.56435C53.9259 7.0757 53.5113 7.49028 53 7.49028Z" fill="#A5C3DC"/>
<path d="M53 11.1941H43.7407C43.2294 11.1941 42.8148 10.7796 42.8148 10.2682C42.8148 9.75687 43.2294 9.34229 43.7407 9.34229H53C53.5113 9.34229 53.9259 9.75687 53.9259 10.2682C53.9259 10.7796 53.5113 11.1941 53 11.1941Z" fill="#A5C3DC"/>
<path d="M49.2963 14.8979H43.7407C43.2294 14.8979 42.8148 14.4833 42.8148 13.9719C42.8148 13.4606 43.2294 13.046 43.7407 13.046H49.2963C49.8076 13.046 50.2222 13.4606 50.2222 13.9719C50.2222 14.4833 49.8076 14.8979 49.2963 14.8979Z" fill="#A5C3DC"/>
<path d="M47.4445 18.6016V20.4534C47.4445 21.985 46.1983 23.2312 44.6667 23.2312H39.1111C36.5584 23.2312 34.4815 25.308 34.4815 27.8608V28.7867H33.5556C33.181 28.7867 32.8434 29.0123 32.7001 29.3583C32.5569 29.7042 32.636 30.1025 32.9008 30.3673L34.7527 32.2192C34.9335 32.3999 35.1704 32.4903 35.4074 32.4903C35.6445 32.4903 35.8814 32.3999 36.0622 32.2192L37.914 30.3673C38.1788 30.1025 38.2581 29.7042 38.1147 29.3583C37.9713 29.0123 37.6338 28.7867 37.2593 28.7867H36.3334V27.8608C36.3334 26.3292 37.5795 25.083 39.1111 25.083H44.6667C47.2195 25.083 49.2963 23.0062 49.2963 20.4534V18.6016H47.4445Z" fill="#555A6E"/>
<path d="M23.2999 29.3583C23.1566 29.0123 22.819 28.7867 22.4445 28.7867H21.5186V27.8608C21.5186 25.308 19.4417 23.2312 16.8889 23.2312H11.3334C9.80177 23.2312 8.55559 21.985 8.55559 20.4534V18.6016H6.70374V20.4534C6.70374 23.0062 8.78059 25.083 11.3334 25.083H16.8889C18.4205 25.083 19.6667 26.3292 19.6667 27.8608V28.7867H18.7408C18.3662 28.7867 18.0286 29.0123 17.8853 29.3583C17.742 29.7042 17.8212 30.1025 18.086 30.3673L19.9379 32.2192C20.1187 32.3999 20.3556 32.4903 20.5926 32.4903C20.8297 32.4903 21.0666 32.3999 21.2474 32.2192L23.0992 30.3673C23.364 30.1026 23.4432 29.7043 23.2999 29.3583Z" fill="#555A6E"/>
<path d="M30.7073 33.062C30.564 32.716 30.2264 32.4905 29.8519 32.4905H28.9259V18.6016H27.0741V32.4905H26.1482C25.7736 32.4905 25.436 32.716 25.2927 33.062C25.1494 33.4079 25.2286 33.8062 25.4934 34.071L27.3453 35.9229C27.5261 36.1036 27.763 36.194 28 36.194C28.2371 36.194 28.474 36.1036 28.6548 35.9229L30.5066 34.071C30.7714 33.8063 30.8506 33.408 30.7073 33.062Z" fill="#555A6E"/>
</svg>
