<svg width="21" height="18" viewBox="0 0 21 18" fill="none" xmlns="http://www.w3.org/2000/svg">
<path fill-rule="evenodd" clip-rule="evenodd" d="M5.53397 3.29986L2.25417 3.10498V11.3876C2.25417 11.5868 2.34495 11.6666 2.53319 11.6666H5.72885L5.53397 3.29986Z" fill="#C17D4F"/>
<path fill-rule="evenodd" clip-rule="evenodd" d="M14.3591 11.3876C14.3591 11.568 14.2749 11.6666 14.0801 11.6666H5.53397V3.10498H14.3591V11.3876Z" fill="#CE9875"/>
<path fill-rule="evenodd" clip-rule="evenodd" d="M5.53397 3.29988H2.25417L0.324134 0.630156C0.23554 0.507266 0.277611 0.404297 0.440384 0.404297H7.82159L5.53397 3.29988Z" fill="#C6865C"/>
<path fill-rule="evenodd" clip-rule="evenodd" d="M5.33795 3.29988H14.359L16.2891 0.630156C16.3821 0.501719 16.3334 0.404297 16.1728 0.404297H7.43076L5.33795 3.29988Z" fill="#C6865C"/>
<path fill-rule="evenodd" clip-rule="evenodd" d="M10.901 3.29986V4.4426C10.901 4.6142 10.7604 4.75482 10.5876 4.75482H8.83038C8.65874 4.75482 8.51811 4.61416 8.51811 4.4426V3.29986L9.94651 3.10498L10.901 3.29986Z" fill="#E27F84"/>
<path fill-rule="evenodd" clip-rule="evenodd" d="M8.51811 3.29988H10.901L12.9938 0.404297H10.6109L8.51811 3.29988Z" fill="#C9646D"/>
<path fill-rule="evenodd" clip-rule="evenodd" d="M5.53397 3.29988H4.55733L6.6501 0.404297H7.62674L5.53397 3.29988Z" fill="#C17D4F"/>
<path fill-rule="evenodd" clip-rule="evenodd" d="M13.3824 3.29988H14.359L16.2891 0.630156C16.3821 0.501719 16.3334 0.404297 16.1728 0.404297H15.1973C15.3567 0.404297 15.4055 0.501719 15.3124 0.630156L13.3824 3.29988Z" fill="#C17D4F"/>
<path fill-rule="evenodd" clip-rule="evenodd" d="M13.3824 3.29987H14.3591V6.25076H13.3824V3.29987Z" fill="#C6865C"/>
<path fill-rule="evenodd" clip-rule="evenodd" d="M4.55733 3.29987H5.53397V11.6666H4.55733V3.29987Z" fill="#B16E3D"/>
<path fill-rule="evenodd" clip-rule="evenodd" d="M14.3591 17.5862C17.6201 17.5862 20.2787 14.9276 20.2787 11.6666C20.2787 8.4067 17.6201 5.74698 14.3591 5.74698C11.0992 5.74698 8.43948 8.4067 8.43948 11.6666C8.43948 14.9275 11.0992 17.5862 14.3591 17.5862Z" fill="#FFE07D"/>
<path fill-rule="evenodd" clip-rule="evenodd" d="M14.3591 5.74698C17.6289 5.74698 20.2787 8.39784 20.2787 11.6666C20.2787 14.9364 17.6289 17.5862 14.3591 17.5862C14.1952 17.5862 14.0324 17.5795 13.8708 17.5662C16.9114 17.3182 19.302 14.7714 19.302 11.6666C19.302 8.56174 16.9114 6.01604 13.8708 5.76694C14.0324 5.75471 14.1952 5.74698 14.3591 5.74698Z" fill="#FFD064"/>
<path d="M10.6353 12.8215C10.6353 12.9832 10.5035 13.1149 10.3418 13.1149C10.1801 13.1149 10.0495 12.9832 10.0495 12.8215V10.5482C10.0495 10.3865 10.1802 10.2559 10.3418 10.2559C10.4503 10.2559 10.5456 10.3146 10.5954 10.4021L11.6385 11.9113L11.6252 10.5471C11.623 10.3854 11.7536 10.2537 11.9142 10.2526C12.0758 10.2515 12.2076 10.381 12.2087 10.5416L12.2297 12.7163C12.2364 12.7938 12.2154 12.878 12.1733 12.9433C12.1356 13.002 12.0836 13.0441 12.0205 13.0684C11.9485 13.0961 11.8721 13.0972 11.7946 13.0673C11.7359 13.0441 11.6817 13.002 11.6385 12.94L10.6352 11.4872V12.8215H10.6353ZM14.8983 10.6268C14.8463 10.474 14.9283 10.3079 15.081 10.2559C15.2339 10.2028 15.4 10.2847 15.4531 10.4375L15.968 11.9357L16.5094 10.4154C16.5637 10.2625 16.7309 10.1828 16.8826 10.236C16.9723 10.268 17.0365 10.3378 17.0631 10.4209L17.5769 11.9279L18.1006 10.433C18.1538 10.2813 18.321 10.2005 18.4727 10.2536C18.6255 10.3068 18.7052 10.4729 18.652 10.6257L17.8537 12.9045C17.8271 12.9931 17.7607 13.0673 17.6677 13.0983C17.5138 13.1503 17.3477 13.0684 17.2967 12.9155L16.7796 11.4008L16.2426 12.9067C16.216 12.9931 16.1496 13.0673 16.0577 13.0983C15.9049 13.1514 15.7377 13.0695 15.6856 12.9167L14.8983 10.6268ZM14.0822 10.2725C14.2439 10.2725 14.3746 10.4031 14.3746 10.5648C14.3746 10.7264 14.2439 10.8582 14.0822 10.8582H13.4245V11.4009H14.0125C14.1742 11.4009 14.3048 11.5315 14.3048 11.6932C14.3048 11.8548 14.1742 11.9866 14.0125 11.9866H13.4245V12.5292H14.0822C14.2439 12.5292 14.3746 12.6598 14.3746 12.8215C14.3746 12.9832 14.2439 13.1149 14.0822 13.1149H13.1311C12.9694 13.1149 12.8388 12.9832 12.8388 12.8215V10.5648C12.8388 10.4031 12.9694 10.2725 13.1311 10.2725H14.0822V10.2725Z" fill="#E27F84"/>
</svg>
