<svg width="53" height="52" viewBox="0 0 53 52" fill="none" xmlns="http://www.w3.org/2000/svg">
<path d="M0.840641 21.5074C0.447105 40.3979 7.71437 48.9342 19.0423 50.5318C49.7391 54.8609 53.806 32.986 52.0023 21.5074C47.6733 -1.71207 30.1408 -1.35119 19.0423 1.33791C10.1078 3.50265 1.0258 12.6193 0.840641 21.5074Z" fill="#FF014F"/>
<path d="M2.89763 28.5685L18.3176 16.0088L40.4841 31.6492L24.823 49.6594C19.2332 50.0386 12.6958 47.1317 10.1258 45.6308C3.57226 41.2705 2.57638 32.4391 2.89763 28.5685Z" fill="url(#paint0_linear_0_1443)"/>
<path d="M17.1362 18.8211C16.9221 29.0947 20.8745 33.7372 27.0352 34.6061C43.7298 36.9605 45.9416 25.0637 44.9607 18.8211C42.6063 6.19304 33.0712 6.38931 27.0352 7.85179C22.1762 9.02909 17.2369 13.9872 17.1362 18.8211Z" fill="white"/>
<defs>
<linearGradient id="paint0_linear_0_1443" x1="29.8827" y1="24.066" x2="8.52492" y2="43.8507" gradientUnits="userSpaceOnUse">
<stop stop-color="#B6315A"/>
<stop offset="1" stop-color="#FE004E" stop-opacity="0.58"/>
</linearGradient>
</defs>
</svg>
