<svg width="174" height="123" viewBox="0 0 174 123" fill="none" xmlns="http://www.w3.org/2000/svg">
<path fill-rule="evenodd" clip-rule="evenodd" d="M61.2847 42.6766H71.2936V41.803C71.487 38.1669 72.7699 35.0949 74.7201 32.6998L67.5962 25.5759C65.7974 27.6421 64.2889 30.0598 63.1607 32.8223C61.8842 35.9459 61.433 39.2758 61.2847 42.6766ZM68.9759 24.1092L76.0901 31.2235C78.8204 28.6447 82.4179 27.1167 86.1217 26.8298V16.7628C79.8294 17.0401 73.6435 19.535 68.9759 24.1092ZM88.1299 16.7499V26.7976C91.7692 26.9652 95.3731 28.361 98.213 31.1687L105.321 24.0608C100.553 19.3384 94.3642 16.9498 88.1299 16.7499ZM106.694 25.534L99.554 32.674C100.044 33.2962 100.499 33.9699 100.921 34.6952C102.371 37.2095 103.058 39.9591 103.045 42.6733H113.102C113.115 38.2539 111.994 33.77 109.624 29.6665C108.747 28.1547 107.767 26.775 106.694 25.534ZM113.019 44.6848H102.906C102.468 48.0276 100.972 51.2092 98.5611 53.6945L105.675 60.8087C109.992 56.4151 112.538 50.6708 113.019 44.6848ZM104.209 62.1852L97.0687 55.0451C96.453 55.5351 95.7921 55.9896 95.0894 56.3958C92.617 57.7787 90.2767 58.404 88.1331 58.5394V68.5548C92.2269 68.4065 96.3401 67.2848 100.134 65.0928C101.607 64.2418 102.971 63.2651 104.209 62.1852ZM56.8524 57.6981C54.6217 53.1852 53.3677 48.1017 53.3677 42.7281C53.3677 24.0447 68.5117 8.90071 87.1951 8.90071C105.879 8.90071 121.019 24.0447 121.019 42.7281C121.019 61.4116 105.875 76.5555 87.1951 76.5555C86.8341 76.5555 86.4763 76.5491 86.1217 76.5394V68.5516V60.4542V58.5265C82.1245 58.2235 78.9946 56.3313 77.241 54.9903C76.232 54.2167 75.6776 53.63 75.6776 53.63V56.5505V60.4542V65.8858V74.5441V80.2271V83.6634C79.3427 84.6917 83.2044 85.2429 87.1951 85.2429C110.675 85.2429 129.71 66.2081 129.71 42.7281C129.71 19.2482 110.675 0.213379 87.1951 0.213379C63.7119 0.213379 44.6772 19.2482 44.6772 42.7281C44.6772 54.3263 49.3223 64.8413 56.8524 72.5101V57.6981ZM71.2903 44.6848H61.2266C61.0686 55.2321 61.2395 65.8471 61.2395 76.4008C64.3083 78.7701 67.6929 80.7139 71.2936 82.1644C71.2904 69.6734 71.2903 57.1791 71.2903 44.6848Z" fill="#FF014F"/>
<path d="M162.541 105.735H173.621V101.687H158.019V105.735H162.541ZM173.769 122.37V118.322H162.541V113.977H172.291V109.93H162.541H158.022V122.37H173.769ZM151.744 101.687H146.838L141.431 116.254L136.024 101.687H131L139.36 122.517H143.378L151.744 101.687ZM124.519 122.37V101.687H119.967V122.37H124.519ZM113.188 105.882V101.687H96.0522V105.882H102.344V122.37H106.893V105.882H113.188ZM93.9105 122.37L85.0488 101.54H80.8541L71.9894 122.37H76.6268C79.6564 114.939 79.7567 114.655 82.8895 107.006C86.0814 114.8 86.0283 114.709 89.1523 122.37H93.9105ZM55.3959 105.735H66.476V101.687H50.8738V105.735H55.3959ZM66.6235 122.37V118.322H55.3959V113.977H65.1456V109.93H55.3959H50.8767V122.37H66.6235ZM39.074 108.806C39.074 110.549 37.8054 111.732 35.5871 111.732H30.9792V105.794H35.4986C37.714 105.794 39.074 106.797 39.074 108.75V108.806ZM44.3042 122.37L39.2509 114.983C41.8822 114.006 43.6847 111.909 43.6847 108.57V108.511C43.6847 104.257 40.7583 101.685 35.8821 101.685H26.4275V122.367H30.9763V115.75H34.5546L38.9854 122.367H44.3042V122.37ZM19.7075 119.03L16.8107 116.104C15.1882 117.582 13.7368 118.526 11.3739 118.526C7.82801 118.526 5.37658 115.573 5.37658 112.027V111.968C5.37658 108.422 7.88701 105.525 11.3739 105.525C13.4418 105.525 15.0672 106.413 16.6632 107.862L19.56 104.522C17.6366 102.631 15.3032 101.331 11.4034 101.331C5.05214 101.331 0.618347 106.148 0.618347 112.027V112.086C0.618347 118.024 5.14061 122.724 11.2264 122.724C15.2176 122.724 17.5805 121.305 19.7075 119.03Z" fill="white"/>
</svg>
