<svg width="183" height="101" viewBox="0 0 183 101" fill="none" xmlns="http://www.w3.org/2000/svg">
<path fill-rule="evenodd" clip-rule="evenodd" d="M144.65 29.8616L132.828 18.0446L50.4135 100.46L49.6822 99.7282C33.5046 83.5506 17.3224 67.3731 1.1449 51.1909L0.418091 50.4642L50.409 0.46875L59.1944 9.25899L17.9848 50.4642L29.8064 62.2857C50.1652 41.9269 70.5286 21.5635 90.8873 1.20471L91.6186 0.477959L100.404 9.2636L99.6775 9.99035C79.3187 30.3537 58.9555 50.7125 38.5921 71.0713L50.409 82.8883L132.824 0.473354L133.555 1.20471C149.728 17.3869 165.915 33.5598 182.092 49.742L182.824 50.4687L132.828 100.464L124.043 91.6785L165.253 50.4733L153.436 38.6564C133.077 59.0198 112.713 79.3786 92.3547 99.7374L91.6231 100.469L82.8377 91.6831L83.569 90.9563C103.928 70.5837 124.287 50.2204 144.65 29.8616Z" fill="white"/>
</svg>
