<svg width="90" height="101" viewBox="0 0 90 101" fill="none" xmlns="http://www.w3.org/2000/svg">
<path fill-rule="evenodd" clip-rule="evenodd" d="M19.5996 58.4972L26.4259 70.3201H12.7733L19.5996 58.4972ZM53.9655 70.3234L52.4167 67.6451L63.665 48.1636L76.4623 70.3267H53.9655V70.3234ZM61.2938 83.0117L58.2257 77.6947H89.2C74.3354 51.9549 59.4808 26.2085 44.6195 0.46875C29.7582 26.2085 14.9035 51.9549 0.0422363 77.6947H30.6862L43.8368 100.469L61.2938 83.0117ZM44.6227 33.4608C41.2178 39.3591 37.8131 45.2574 34.4082 51.1557L38.6485 58.4972C42.0501 52.5989 45.4582 46.7006 48.8631 40.8023L44.6227 33.4608ZM45.4021 88.474L23.8466 51.1392C30.7686 39.1544 37.6941 27.1729 44.6161 15.1814L59.4147 40.8089L43.9226 67.6385C46.6471 72.3545 49.3684 77.0671 52.0897 81.7831L45.4021 88.474Z" fill="white"/>
</svg>
