<svg width="101" height="59" viewBox="0 0 101 59" fill="none" xmlns="http://www.w3.org/2000/svg">
<path fill-rule="evenodd" clip-rule="evenodd" d="M45.1403 0.124726L73.6314 36.8596C73.7614 37.0586 73.91 37.247 74.0692 37.4247C74.897 38.3322 76.0857 38.9 77.4097 38.9C81.0315 38.9 83.1196 34.8776 81.1986 31.9245C81.0607 31.7148 80.9068 31.5159 80.737 31.3301L67.497 14.2588H89.3495C95.7015 14.2588 100.849 19.4062 100.849 25.7582C100.849 28.1462 100.122 30.3643 98.8748 32.2031L80.8377 55.4618C79.0521 57.5181 76.42 58.8156 73.4828 58.8156C70.5324 58.8156 67.8897 57.5022 66.104 55.43L56.8201 43.461L47.5124 55.4618C45.7267 57.5181 43.0946 58.8156 40.1574 58.8156C37.207 58.8156 34.5643 57.5022 32.7787 55.43L0.848877 14.2588L11.8123 0.12207L22.7757 14.2588L40.3034 36.8569C40.436 37.0559 40.582 37.2443 40.7412 37.4221C41.5664 38.3295 42.7577 38.8973 44.0816 38.8973C47.7007 38.8973 49.7915 34.8749 47.8706 31.9218C47.7326 31.7122 47.5787 31.5132 47.4089 31.3275L34.169 14.2562L45.1403 0.124726Z" fill="#FF014F"/>
</svg>
