<svg width="108" height="108" viewBox="0 0 108 108" fill="none" xmlns="http://www.w3.org/2000/svg">
<path d="M98.9716 58.2635L97.8738 42.9797C97.7665 41.4857 96.4724 40.365 94.9784 40.4723L79.6945 41.57C78.2005 41.6773 77.0798 42.9714 77.1871 44.4654C77.2944 45.9594 78.5886 47.0801 80.0826 46.9728L88.844 46.3436L86.0316 49.5912C77.5643 59.369 65.1147 67.7909 53.0915 66.2406C62.5531 58.7284 60.3783 48.8758 54.915 44.1448C49.2695 39.2559 40.6991 39.8714 35.8102 45.5169C31.3416 50.6771 30.3519 59.6778 39.4091 66.3207C29.0445 67.9984 15.995 64.1905 5.79132 55.3543C4.66099 54.3755 2.95097 54.4964 1.97035 55.6288C0.989733 56.7611 1.11445 58.4709 2.24478 59.4497C15.8456 71.2278 33.5283 74.9737 46.253 70.1154C62.1492 76.2594 79.1647 65.7966 90.127 53.1378L92.9394 49.8901L93.5687 58.6516C93.676 60.1456 94.9702 61.2663 96.4642 61.159C97.9582 61.0517 99.0789 59.7575 98.9716 58.2635ZM39.9056 49.0635C42.8386 45.6766 47.9816 45.3072 51.3685 48.2402C55.9001 52.1644 55.555 59.6055 46.254 64.193C37.0102 59.6854 36.2385 53.2981 39.9056 49.0635Z" fill="#FF014F"/>
</svg>
