<svg width="111" height="110" viewBox="0 0 111 110" fill="none" xmlns="http://www.w3.org/2000/svg">
<path d="M13.6585 1.03562C12.5514 1.77365 11.0754 1.95816 10.1528 2.8807C9.4148 3.43423 9.4148 4.54128 10.1528 5.0948C10.8909 5.46382 11.8134 5.0948 12.5514 4.91029C13.105 4.72579 13.2895 4.35677 13.2895 3.80324C13.843 3.43423 14.3965 3.06521 14.7655 2.51169C15.5036 1.77365 14.581 0.297585 13.6585 1.03562Z" fill="white"/>
<path d="M6.27805 11.9217C5.171 12.8443 4.06395 13.9513 3.14141 15.0584C2.21887 16.1654 1.11182 17.6415 1.11182 18.933C1.11182 19.6711 2.03436 20.0401 2.40338 19.4866C3.32592 18.564 3.51043 17.088 4.24846 15.9809C4.98649 14.6894 5.90904 13.7668 7.01609 12.6598C7.3851 12.1062 6.64707 11.5527 6.27805 11.9217Z" fill="white"/>
<path d="M1.84994 28.5273C1.48092 27.0512 1.29641 25.3907 1.29641 23.7301C1.29641 23.1766 0.37387 23.1766 0.37387 23.7301C0.37387 25.9442 -0.733181 30.3724 1.48092 31.8485C1.84994 32.2175 2.40346 31.6639 2.40346 31.2949C2.40346 30.3724 2.03445 29.4498 1.84994 28.5273Z" fill="white"/>
<path d="M12.1824 35.5389C9.23029 35.9079 6.64718 36.4614 3.87955 34.9853C3.51053 34.8008 3.32603 35.1699 3.69504 35.3544C6.46267 37.384 9.59931 38.3065 12.736 36.6459C13.474 36.2769 12.736 35.3544 12.1824 35.5389Z" fill="white"/>
<path d="M25.467 25.9444C23.991 26.4979 22.8839 27.605 21.5924 28.5275C20.1163 29.6345 18.8247 30.7416 17.5332 32.0332C17.1642 32.4022 17.7177 33.1402 18.2712 32.7712C19.3783 31.6641 20.6698 30.9261 21.9614 30.0036C23.2529 29.081 24.9135 28.343 26.0206 27.2359C26.5741 26.6824 26.2051 25.5754 25.467 25.9444Z" fill="white"/>
<path d="M37.8291 12.6595C34.5079 13.9511 31.3713 17.0877 28.9727 19.6709C28.6037 20.2244 29.1572 20.7779 29.7107 20.4089C31.1868 19.1173 32.8474 17.8258 34.5079 16.7187C35.7995 15.7962 37.2756 15.0581 38.3826 13.9511C38.9361 13.2131 38.3826 12.475 37.8291 12.6595Z" fill="white"/>
<path d="M54.2504 5.83267C50.9292 5.64816 47.6081 6.93972 44.6559 8.04677C44.1024 8.23128 44.2869 8.96931 44.8404 8.96931C47.9771 8.04677 51.1137 7.67775 54.2504 7.49324C55.1729 7.30873 55.1729 5.83267 54.2504 5.83267Z" fill="white"/>
<path d="M66.6123 11.9217C65.6898 10.8147 64.3982 9.70762 63.2912 8.78507C62.3686 8.04704 61.2616 9.15409 61.9996 10.0766C62.9225 10.9992 63.8447 12.1062 64.7672 13.2133C65.6901 14.3203 66.6123 15.9809 67.9039 16.9034C68.4574 17.2725 69.1954 16.7189 69.0109 15.9809C69.0109 14.5048 67.7194 13.0288 66.6123 11.9217Z" fill="white"/>
<path d="M70.118 21.8851C70.118 21.147 68.8267 21.147 68.8267 21.8851C68.6422 23.7302 68.2732 25.3907 67.9039 27.2358C67.5348 28.8964 66.6123 30.557 66.6123 32.402C66.6123 33.3246 67.9039 33.6936 68.2732 32.7711C69.9338 29.6344 70.3025 25.2062 70.118 21.8851Z" fill="white"/>
<path d="M62.1842 40.5202C61.2614 41.8118 60.3392 43.1033 59.4163 44.3949C58.6786 45.6865 57.387 46.978 57.2022 48.4541C57.2022 49.1921 57.9402 49.3766 58.4938 49.1921C59.7853 48.6386 60.3389 46.978 60.8924 45.871C61.8149 44.3949 62.553 42.7343 63.4755 41.2583C63.8448 40.3357 62.7378 39.7822 62.1842 40.5202Z" fill="white"/>
<path d="M52.9588 53.9894C51.2982 55.4654 50.0066 56.9415 48.8996 58.6021C47.7925 60.2627 46.3165 62.6613 46.6855 64.6909C46.87 65.6134 47.7925 65.7979 48.3461 65.0599C49.2686 63.7683 49.4531 61.9232 50.0066 60.4472C50.7447 58.2331 52.0362 56.2035 53.5123 54.3584C53.8813 54.1739 53.3278 53.6203 52.9588 53.9894Z" fill="white"/>
<path d="M42.4418 72.0711C40.7813 73.5472 39.4897 75.2078 38.3827 77.2373C37.2756 79.2669 35.984 81.8504 36.3531 84.0645C36.5376 84.8025 37.6446 84.8025 37.8291 84.249C38.9362 82.5881 38.9362 80.374 39.6742 78.5289C40.4122 76.4996 41.7038 74.4697 43.1799 72.6246C43.5489 72.2556 42.9954 71.5176 42.4418 72.0711Z" fill="white"/>
<path d="M42.2572 100.301C40.9657 99.5629 39.8586 99.0094 38.9361 97.9023C38.0135 96.4263 37.6445 94.2122 37.6445 92.5516C37.6445 91.9978 36.722 91.9978 36.722 92.5516C36.353 96.0573 37.091 102.146 41.8882 101.962C42.6263 101.777 42.9953 100.67 42.2572 100.301Z" fill="white"/>
<path d="M61.8152 106.759C59.786 106.574 57.7561 106.943 55.7268 106.943C53.1433 106.759 50.7447 106.02 48.7151 104.544C48.3461 104.36 48.1616 104.914 48.3461 105.098C52.2208 108.05 57.5718 110.633 62.3691 108.604C63.2913 108.05 62.7378 106.759 61.8152 106.759Z" fill="white"/>
<path d="M77.4984 94.2123C76.2068 94.9504 75.0998 96.0574 73.6237 96.9799C72.3321 97.718 70.8558 98.087 69.38 98.2715C68.4572 98.456 68.4572 99.7476 69.38 99.7476C72.7011 99.9321 76.9448 98.825 78.7899 95.6884C79.5283 94.7658 78.4209 93.843 77.4984 94.2123Z" fill="white"/>
<path d="M85.0632 83.1416C82.6646 85.5402 80.0818 88.1233 78.4209 91.0754C77.8674 91.9983 79.1589 92.5515 79.7125 91.8135C81.7421 89.2303 85.0632 87.3853 86.5396 84.2486C86.7238 83.3264 85.8012 82.4038 85.0632 83.1416Z" fill="white"/>
<path d="M98.9016 83.3263C98.3481 82.2192 96.8721 81.4812 95.765 80.9277C94.4734 80.3741 92.9974 80.1899 91.5213 80.1899C90.5988 80.1899 90.5988 81.4812 91.5213 81.4812C92.8129 81.4812 93.9199 81.8505 95.027 82.404C95.9498 82.9576 96.6878 83.8801 97.6101 84.4333C98.3481 84.9866 99.2704 84.0643 98.9016 83.3263Z" fill="white"/>
<path d="M109.972 90.522C107.389 86.2783 105.728 81.481 103.514 77.0528C102.407 75.0232 99.4549 76.8683 100.377 78.8979C102.038 82.5878 103.514 86.4628 105.728 89.9684C104.068 90.1529 102.407 90.3374 100.562 90.522C99.8239 90.7065 98.5323 90.7065 97.9788 91.4448L97.7946 91.629C97.7946 91.629 97.6101 91.629 97.6101 91.8135C97.241 92.1825 97.6101 92.9206 97.9791 92.9206C98.1636 93.1051 98.3484 93.1051 98.7171 93.1051C99.64 93.2893 100.562 93.1051 101.669 93.1051C104.068 92.9206 106.282 92.7358 108.681 92.9206C109.787 93.1051 110.525 91.629 109.972 90.522Z" fill="white"/>
</svg>
