<svg width="149" height="149" viewBox="0 0 149 149" fill="none" xmlns="http://www.w3.org/2000/svg">
<g opacity="0.1" clip-path="url(#clip0_0_2639)">
<path d="M49.6121 66.8685C53.6403 64.3706 56.0454 60.0494 56.0454 55.3094V47.0847C56.0454 43.8647 53.4257 41.2451 50.2058 41.2451H41.1578C37.9382 41.2451 35.3183 43.8647 35.3183 47.0847V54.6053C35.3183 57.8252 37.9379 60.4448 41.1578 60.4448H45.2932V64.4654C45.2932 66.676 47.7314 68.0361 49.6121 66.8685ZM41.1581 56.0967C40.3497 56.0967 39.6667 55.4137 39.6667 54.6053V47.0847C39.6667 46.2762 40.3494 45.5933 41.1581 45.5933H50.2061C51.0145 45.5933 51.6975 46.2762 51.6975 47.0847V55.3094C51.6975 57.4768 50.9583 59.5152 49.6417 61.135V59.7027C49.6417 57.7142 48.0239 56.0964 46.0356 56.0964H41.1581V56.0967Z" fill="black"/>
<path d="M73.6769 66.8686C77.705 64.3704 80.1101 60.0495 80.1101 55.3094V47.0847C80.1101 43.8647 77.4905 41.2451 74.2706 41.2451H65.2226C62.0029 41.2451 59.383 43.8647 59.383 47.0847V54.6053C59.383 57.8252 62.0026 60.4449 65.2226 60.4449H69.358V64.4655C69.358 66.6822 71.802 68.0318 73.6769 66.8686V66.8686ZM65.2226 56.0967C64.4141 56.0967 63.7312 55.4138 63.7312 54.6053V47.0847C63.7312 46.2762 64.4138 45.5933 65.2226 45.5933H74.2706C75.079 45.5933 75.762 46.2762 75.762 47.0847V55.3094C75.762 57.4765 75.0228 59.5152 73.7062 61.1351V59.7031C73.7062 57.7145 72.0884 56.0967 70.1001 56.0967H65.2226Z" fill="black"/>
<path d="M98.9748 73.4783H24.14C22.939 73.4783 21.9659 74.4517 21.9659 75.6524C21.9659 76.853 22.939 77.8264 24.14 77.8264H98.9748C100.176 77.8264 101.149 76.853 101.149 75.6524C101.149 74.4517 100.176 73.4783 98.9748 73.4783V73.4783Z" fill="black"/>
<path d="M98.9748 83.4788H24.14C22.939 83.4788 21.9659 84.4522 21.9659 85.6528C21.9659 86.8535 22.939 87.8269 24.14 87.8269H98.9748C100.176 87.8269 101.149 86.8535 101.149 85.6528C101.149 84.4522 100.176 83.4788 98.9748 83.4788Z" fill="black"/>
<path d="M101.149 95.6538C101.149 94.4531 100.176 93.4797 98.9748 93.4797H24.14C22.939 93.4797 21.9659 94.4531 21.9659 95.6538C21.9659 96.8545 22.939 97.8279 24.14 97.8279H98.9748C100.176 97.8279 101.149 96.8545 101.149 95.6538Z" fill="black"/>
<path d="M42.8487 103.48C41.6477 103.48 40.6746 104.454 40.6746 105.654C40.6746 106.855 41.6477 107.828 42.8487 107.828H80.2661C81.4671 107.828 82.4402 106.855 82.4402 105.654C82.4402 104.454 81.4671 103.48 80.2661 103.48H42.8487Z" fill="black"/>
<path d="M127.54 1.50269H92.505C91.3041 1.50269 90.3309 2.47609 90.3309 3.67677C90.3309 4.87744 91.3041 5.85085 92.505 5.85085H127.54C136.83 5.85085 144.389 13.4094 144.389 22.7V76.5992C144.389 85.8898 136.83 93.4484 127.54 93.4484H122.929V80.7254C122.929 79.5247 121.956 78.5513 120.755 78.5513C119.554 78.5513 118.581 79.5247 118.581 80.7254V101.226C118.581 110.517 111.023 118.075 101.732 118.075C99.256 118.075 96.9442 119.165 95.3896 121.065C86.862 131.486 76.7076 138.85 69.6908 143.193C69.0354 143.597 68.2843 142.913 68.6275 142.212C71.3845 136.587 73.4983 130.687 74.9103 124.677C75.7011 121.309 73.1337 118.075 69.6612 118.075H21.5172C12.2263 118.075 4.66774 110.517 4.66774 101.226V47.3268C4.66774 38.0362 12.2263 30.4777 21.5172 30.4777H101.732C111.023 30.4777 118.581 38.0362 118.581 47.3268V70.5796C118.581 71.7803 119.554 72.7537 120.755 72.7537C121.956 72.7537 122.929 71.7803 122.929 70.5796V47.3268C122.929 35.6387 113.42 26.1295 101.732 26.1295H30.4753V22.7003C30.4753 13.4097 38.0338 5.85114 47.3244 5.85114H82.359C83.56 5.85114 84.5331 4.87773 84.5331 3.67706C84.5331 2.47638 83.56 1.50298 82.359 1.50298H47.3244C35.6362 1.50298 26.1271 11.0121 26.1271 22.7003V26.1295H21.5172C9.82902 26.1295 0.31958 35.6387 0.31958 47.3268V101.226C0.31958 112.915 9.82902 122.423 21.5172 122.423H69.6609C70.3265 122.423 70.8283 123.039 70.6769 123.682C69.3397 129.376 67.3367 134.966 64.7231 140.298C62.4682 144.899 67.6286 149.582 71.9788 146.89C79.2773 142.373 89.8471 134.703 98.7548 123.818C99.4801 122.932 100.565 122.423 101.732 122.423C113.42 122.423 122.929 112.914 122.929 101.226V97.7965H127.54C139.228 97.7965 148.737 88.2874 148.737 76.5992V22.7003C148.737 11.0121 139.228 1.50269 127.54 1.50269V1.50269Z" fill="black"/>
</g>
<defs>
<clipPath id="clip0_0_2639">
<rect width="148.417" height="148.417" fill="white" transform="translate(0.31958 0.382812)"/>
</clipPath>
</defs>
</svg>
