<svg width="40" height="27" viewBox="0 0 40 27" fill="none" xmlns="http://www.w3.org/2000/svg">
<path d="M28.7167 0.0771484L19.3921 5.4623H10.0614C9.28099 5.4623 8.64049 6.1028 8.64049 6.88321V7.23766C8.64049 8.01807 9.28099 8.65857 10.0614 8.65857H13.1395H14.9491C15.7295 8.65857 16.37 9.29907 16.37 10.0795V10.4339C16.37 11.2143 15.7295 11.8548 14.9491 11.8548H13.1364H1.42091C0.640495 11.8548 0 12.4953 0 13.2757V13.6302C0 14.4106 0.640495 15.0511 1.42091 15.0511H5.56238H7.9658C8.74621 15.0511 9.38671 15.6885 9.38671 16.472V16.8265C9.38671 17.6069 8.74621 18.2474 7.9658 18.2474H5.56238C4.78197 18.2474 4.14458 18.8879 4.14458 19.6683V20.0227C4.14458 20.8031 4.78507 21.4436 5.56549 21.4436H20.5892L28.7167 26.1354L40 19.6217V6.59716L28.7167 0.0771484Z" fill="#FF014F"/>
<path d="M7.28797 7.06351C7.28797 7.98384 6.54176 8.73005 5.62143 8.73005C4.70111 8.73005 3.9549 7.98384 3.9549 7.06351C3.9549 6.14318 4.70111 5.39697 5.62143 5.39697C6.53865 5.39697 7.28797 6.14318 7.28797 7.06351Z" fill="#FF014F"/>
<path d="M37.8671 18.3872L28.7167 23.6698L19.5663 18.3872V7.8221L28.7167 2.53955L37.8671 7.8221V18.3872Z" fill="white"/>
<g opacity="0.4">
<path opacity="0.4" d="M28.7167 2.53955L19.5663 7.8221V8.25428L28.468 3.11476L37.3696 8.25428V18.5302L28.5923 23.5982L28.7167 23.6698L37.8671 18.3872V7.8221L28.7167 2.53955Z" fill="url(#paint0_linear_0_1209)"/>
</g>
<path d="M28.7167 6.43359L24.4568 13.0353L28.7167 15.4923L32.9765 13.0353L28.7167 6.43359ZM29.1429 7.87839L32.3777 12.8883L29.1429 14.7529V7.87839Z" fill="#FF014F"/>
<path d="M28.7167 16.5449L24.4568 13.9707L28.7167 19.7755L32.9765 13.9707L28.7167 16.5449ZM29.1429 16.7857L31.3718 15.4389L29.1429 18.4756V16.7857Z" fill="#FF014F"/>
<defs>
<linearGradient id="paint0_linear_0_1209" x1="28.7171" y1="23.6707" x2="28.7171" y2="2.53877" gradientUnits="userSpaceOnUse">
<stop stop-color="#66321D"/>
<stop offset="1" stop-color="#BE963D"/>
</linearGradient>
</defs>
</svg>
