<svg width="26" height="16" viewBox="0 0 26 16" fill="none" xmlns="http://www.w3.org/2000/svg">
<path d="M5.55121 7.52504H6.897C7.18956 4.50348 9.60808 2.08622 12.6312 1.79381V0.44873C8.86692 0.760634 5.86327 3.7627 5.55121 7.52504Z" fill="#FF4A4A"/>
<path d="M13.9184 14.5623V15.9074C17.6827 15.5955 20.7059 12.5934 20.9984 8.83105H19.6526C19.3601 11.8526 16.9415 14.2504 13.9184 14.5623Z" fill="#FF4A4A"/>
<path d="M25.2114 2.20319C24.9383 2.20319 24.7238 2.37863 24.6653 2.63205H18.6775C17.4292 1.40393 15.7714 0.604682 13.9185 0.44873V1.79381C16.9416 2.08622 19.3601 4.50348 19.6527 7.52504H20.9985C20.979 7.17415 20.9205 6.84275 20.8424 6.51135H23.9241C23.9826 6.76478 24.2167 6.95972 24.4897 6.95972C24.8018 6.95972 25.0749 6.70629 25.0749 6.3749C25.0749 6.06299 24.8213 5.79008 24.4897 5.79008C24.2167 5.79008 24.0021 5.96552 23.9436 6.21895H20.7839C20.6279 5.59514 20.3743 4.99082 20.0623 4.4255H22.7929C22.8514 4.67892 23.0854 4.87386 23.3585 4.87386C23.6706 4.87386 23.9436 4.62044 23.9436 4.28904C23.9436 3.97714 23.6901 3.70422 23.3585 3.70422C23.0854 3.70422 22.8709 3.87967 22.8124 4.13309H19.9062C19.6332 3.68473 19.3211 3.27536 18.97 2.88548H24.6653C24.7238 3.1389 24.9578 3.33384 25.2309 3.33384C25.543 3.33384 25.816 3.08042 25.816 2.74902C25.7965 2.45661 25.543 2.20319 25.2114 2.20319Z" fill="#CA2FF2"/>
<path d="M6.89672 8.81152H5.55093C5.57044 9.16241 5.62895 9.49381 5.70697 9.82521H2.6058C2.54729 9.57179 2.31324 9.37685 2.04018 9.37685C1.72811 9.37685 1.45505 9.63027 1.45505 9.96167C1.45505 10.2736 1.70861 10.5465 2.04018 10.5465C2.31324 10.5465 2.52778 10.371 2.5863 10.1176H5.74598C5.90201 10.7414 6.15556 11.3457 6.46763 11.9111H3.73704C3.67853 11.6576 3.44448 11.4627 3.17142 11.4627C2.85936 11.4627 2.5863 11.7161 2.5863 12.0475C2.5863 12.3594 2.83985 12.6323 3.17142 12.6323C3.44448 12.6323 3.65903 12.4569 3.71754 12.2035H6.62366C6.89672 12.6518 7.20879 13.0612 7.55987 13.4511H1.88415C1.82563 13.1977 1.59158 13.0027 1.31852 13.0027C1.00646 13.0027 0.733398 13.2561 0.733398 13.5875C0.733398 13.8994 0.986953 14.1724 1.31852 14.1724C1.59158 14.1724 1.80613 13.9969 1.86464 13.7435H7.85243C9.1007 14.9716 10.7781 15.7514 12.6115 15.9073V14.5622C9.60781 14.2503 7.18929 11.8526 6.89672 8.81152Z" fill="#CA2FF2"/>
<path d="M16.7014 7.92711C16.992 7.59257 17.177 7.15238 17.177 6.67698C17.177 5.62933 16.3226 4.78418 15.2832 4.78418H12.5086C12.3853 4.6081 12.1739 4.49365 11.9449 4.49365C11.5661 4.49365 11.2578 4.80178 11.2578 5.18034C11.2578 5.5589 11.5661 5.86704 11.9449 5.86704C12.1739 5.86704 12.3853 5.75259 12.5086 5.57651H15.2744C15.8822 5.57651 16.3755 6.06952 16.3755 6.67698C16.3755 7.28444 15.8822 7.77745 15.2744 7.77745H13.7418V5.86704H12.9402V10.4802H13.7418V8.57859H15.2832H15.9615C16.5692 8.57859 17.0625 9.0716 17.0625 9.67905C17.0625 10.2865 16.5692 10.7795 15.9615 10.7795H11.3987C11.2754 10.6034 11.064 10.489 10.835 10.489C10.4562 10.489 10.1479 10.7971 10.1479 11.1757C10.1479 11.5543 10.4562 11.8624 10.835 11.8624C11.064 11.8624 11.2754 11.7479 11.3987 11.5719H15.9527C17.0008 11.5719 17.8465 10.7179 17.8465 9.67905C17.8553 8.88672 17.3796 8.21763 16.7014 7.92711ZM11.9449 5.40044C11.8303 5.40044 11.7335 5.3036 11.7335 5.18915C11.7335 5.0747 11.8303 4.97786 11.9449 4.97786C12.0594 4.97786 12.1563 5.0747 12.1563 5.18915C12.1651 5.3036 12.0682 5.40044 11.9449 5.40044ZM10.835 11.3782C10.7205 11.3782 10.6236 11.2813 10.6236 11.1669C10.6236 11.0524 10.7205 10.9556 10.835 10.9556C10.9495 10.9556 11.0464 11.0524 11.0464 11.1669C11.0552 11.2813 10.9583 11.3782 10.835 11.3782Z" fill="#FF4A4A"/>
<path d="M10.3503 7.63779C10.5793 7.63779 10.7907 7.52329 10.9141 7.34712H12.4819V6.54556H10.9141C10.7907 6.36939 10.5793 6.25488 10.3503 6.25488C9.97156 6.25488 9.66327 6.56318 9.66327 6.94193C9.65446 7.3295 9.96275 7.63779 10.3503 7.63779ZM10.3503 6.73053C10.4648 6.73053 10.5617 6.82743 10.5617 6.94193C10.5617 7.05644 10.4648 7.15334 10.3503 7.15334C10.2358 7.15334 10.1389 7.05644 10.1389 6.94193C10.1389 6.82743 10.227 6.73053 10.3503 6.73053Z" fill="#FF4A4A"/>
<path d="M12.5171 9.42451V8.62295H9.95391C9.83059 8.44678 9.61919 8.33228 9.39018 8.33228C9.01142 8.33228 8.70312 8.64057 8.70312 9.01933C8.70312 9.39809 9.01142 9.70638 9.39018 9.70638C9.61919 9.70638 9.83059 9.59187 9.95391 9.4157H12.5171V9.42451ZM9.39018 9.23954C9.27567 9.23954 9.17878 9.14264 9.17878 9.02814C9.17878 8.91363 9.27567 8.81673 9.39018 8.81673C9.50469 8.81673 9.60158 8.91363 9.60158 9.02814C9.61039 9.14264 9.51349 9.23954 9.39018 9.23954Z" fill="#FF4A4A"/>
</svg>
