<svg width="21" height="18" viewBox="0 0 21 18" fill="none" xmlns="http://www.w3.org/2000/svg">
<path fill-rule="evenodd" clip-rule="evenodd" d="M5.53389 3.29986L2.25409 3.10498V11.3876C2.25409 11.5868 2.34487 11.6666 2.53311 11.6666H5.72877L5.53389 3.29986Z" fill="#C17D4F"/>
<path fill-rule="evenodd" clip-rule="evenodd" d="M14.359 11.3876C14.359 11.568 14.2749 11.6666 14.08 11.6666H5.53394V3.10498H14.359V11.3876Z" fill="#CE9875"/>
<path fill-rule="evenodd" clip-rule="evenodd" d="M5.53391 3.29988H2.25411L0.324073 0.630156C0.235479 0.507266 0.27755 0.404297 0.440323 0.404297H7.82153L5.53391 3.29988Z" fill="#C6865C"/>
<path fill-rule="evenodd" clip-rule="evenodd" d="M5.33789 3.29988H14.359L16.289 0.630156C16.382 0.501719 16.3333 0.404297 16.1727 0.404297H7.4307L5.33789 3.29988Z" fill="#C6865C"/>
<path fill-rule="evenodd" clip-rule="evenodd" d="M10.901 3.29986V4.4426C10.901 4.6142 10.7603 4.75482 10.5876 4.75482H8.83033C8.65869 4.75482 8.51807 4.61416 8.51807 4.4426V3.29986L9.94646 3.10498L10.901 3.29986Z" fill="#E27F84"/>
<path fill-rule="evenodd" clip-rule="evenodd" d="M8.51807 3.29988H10.901L12.9937 0.404297H10.6108L8.51807 3.29988Z" fill="#C9646D"/>
<path fill-rule="evenodd" clip-rule="evenodd" d="M5.53389 3.29988H4.55725L6.65002 0.404297H7.62666L5.53389 3.29988Z" fill="#C17D4F"/>
<path fill-rule="evenodd" clip-rule="evenodd" d="M13.3824 3.29988H14.359L16.289 0.630156C16.382 0.501719 16.3333 0.404297 16.1727 0.404297H15.1972C15.3567 0.404297 15.4054 0.501719 15.3124 0.630156L13.3824 3.29988Z" fill="#C17D4F"/>
<path fill-rule="evenodd" clip-rule="evenodd" d="M13.3824 3.29987H14.359V6.25076H13.3824V3.29987Z" fill="#C6865C"/>
<path fill-rule="evenodd" clip-rule="evenodd" d="M4.55725 3.29987H5.53389V11.6666H4.55725V3.29987Z" fill="#B16E3D"/>
<path fill-rule="evenodd" clip-rule="evenodd" d="M14.359 17.5861C17.62 17.5861 20.2786 14.9276 20.2786 11.6666C20.2786 8.4067 17.62 5.74698 14.359 5.74698C11.0991 5.74698 8.43939 8.4067 8.43939 11.6666C8.43939 14.9275 11.0991 17.5861 14.359 17.5861V17.5861Z" fill="#FFE07D"/>
<path fill-rule="evenodd" clip-rule="evenodd" d="M14.359 5.74698C17.6289 5.74698 20.2787 8.39784 20.2787 11.6666C20.2787 14.9364 17.6289 17.5861 14.359 17.5861C14.1952 17.5861 14.0324 17.5795 13.8707 17.5662C16.9113 17.3182 19.302 14.7714 19.302 11.6666C19.302 8.56174 16.9113 6.01604 13.8707 5.76694C14.0324 5.75471 14.1952 5.74698 14.359 5.74698V5.74698Z" fill="#FFD064"/>
<path d="M10.6352 12.8215C10.6352 12.9832 10.5034 13.1149 10.3417 13.1149C10.1801 13.1149 10.0494 12.9832 10.0494 12.8215V10.5482C10.0494 10.3865 10.1801 10.2559 10.3417 10.2559C10.4503 10.2559 10.5455 10.3146 10.5953 10.4021L11.6384 11.9113L11.6251 10.5471C11.6229 10.3854 11.7535 10.2537 11.9141 10.2526C12.0758 10.2515 12.2075 10.381 12.2086 10.5416L12.2297 12.7163C12.2363 12.7938 12.2153 12.878 12.1732 12.9433C12.1356 13.002 12.0835 13.0441 12.0204 13.0684C11.9485 13.0961 11.8721 13.0972 11.7945 13.0673C11.7358 13.0441 11.6816 13.002 11.6384 12.94L10.6351 11.4872V12.8215H10.6352ZM14.8983 10.6268C14.8462 10.474 14.9282 10.3079 15.081 10.2559C15.2338 10.2028 15.3999 10.2847 15.453 10.4375L15.9679 11.9357L16.5094 10.4154C16.5636 10.2625 16.7308 10.1828 16.8825 10.236C16.9722 10.268 17.0364 10.3378 17.063 10.4209L17.5768 11.9279L18.1006 10.433C18.1537 10.2813 18.3209 10.2005 18.4726 10.2536C18.6254 10.3068 18.7051 10.4729 18.652 10.6257L17.8536 12.9045C17.827 12.9931 17.7606 13.0673 17.6676 13.0983C17.5137 13.1503 17.3476 13.0684 17.2967 12.9155L16.7796 11.4008L16.2425 12.9067C16.216 12.9931 16.1495 13.0673 16.0576 13.0983C15.9048 13.1514 15.7376 13.0695 15.6856 12.9167L14.8983 10.6268ZM14.0822 10.2725C14.2438 10.2725 14.3745 10.4031 14.3745 10.5648C14.3745 10.7264 14.2438 10.8582 14.0822 10.8582H13.4244V11.4009H14.0124C14.1741 11.4009 14.3047 11.5315 14.3047 11.6932C14.3047 11.8548 14.1741 11.9866 14.0124 11.9866H13.4244V12.5292H14.0822C14.2438 12.5292 14.3745 12.6598 14.3745 12.8215C14.3745 12.9832 14.2438 13.1149 14.0822 13.1149H13.131C12.9693 13.1149 12.8387 12.9832 12.8387 12.8215V10.5648C12.8387 10.4031 12.9694 10.2725 13.131 10.2725H14.0822V10.2725Z" fill="#E27F84"/>
</svg>
